<?xml version="1.0" encoding="UTF-8"?>
<svg version="1.1" viewBox="0 0 400 400" xmlns="http://www.w3.org/2000/svg">
<g fill-rule="evenodd">
<path d="m107.38 54.581c-7.092 0.581-20.074 3.638-22.478 5.294-0.242 0.167-0.577 0.304-0.743 0.304-0.38 0-6.969 3.283-7.446 3.71-0.194 0.174-0.426 0.317-0.515 0.317-0.539 0-5.454 3.522-8.528 6.11-2.541 2.14-8.389 8.752-8.389 9.486 0 0.081-0.189 0.355-0.421 0.609-0.231 0.254-0.78 1.135-1.22 1.958s-0.9 1.679-1.023 1.902c-2.477 4.493-4.239 10.732-4.727 16.742-0.474 5.83-0.183 192.58 0.304 195.52 0.705 4.263 2.737 11.572 3.823 13.754 0.155 0.31 0.557 1.168 0.893 1.906 5.653 12.402 16.345 24.239 27.986 30.983 2.764 1.601 3.584 2.034 5.822 3.074 2.56 1.19 3.209 1.446 6.371 2.519 3.724 1.264 6.367 1.806 11.521 2.363 4.066 0.439 97.128 0.481 97.721 0.043 0.356-0.262 0.376-4.358 0.323-65.156l-0.057-64.877-11.298-0.112c-12.267-0.121-12.23-0.117-12.88-1.375-0.266-0.513-0.319-2.841-0.319-13.908v-13.292l0.485-0.616c0.964-1.226 1.042-1.234 12.774-1.234 8.111 0 10.88-0.067 11.081-0.268 0.2-0.201 0.269-2.687 0.272-9.788 4e-3 -11.293 0.298-15.604 1.47-21.569 1.279-6.509 3.01-11.975 5.475-17.285 0.485-1.045 0.881-1.946 0.881-2.003 0-0.056 0.252-0.501 0.56-0.989 0.307-0.487 0.559-0.995 0.559-1.129 0-0.133 0.252-0.573 0.559-0.976 0.308-0.403 0.56-0.803 0.56-0.889s0.187-0.428 0.417-0.762c0.23-0.333 1.099-1.658 1.931-2.944 8.808-13.608 21.386-21.935 37.808-25.03 0.738-0.139 2.148-0.404 3.132-0.589 5.576-1.045 19.881-1.056 26.286-0.02 1.169 0.189 2.83 0.455 3.692 0.59 0.861 0.134 2.119 0.374 2.796 0.532s1.812 0.418 2.523 0.577c2.896 0.649 3.349 1.78 2.552 6.368-0.518 2.982-1.234 7.265-1.515 9.06-0.309 1.976-0.805 4.966-1.216 7.327-0.187 1.076-0.486 3.022-0.665 4.323-0.939 6.841-1.495 7.443-6.153 6.675-8.124-1.339-16.294-0.589-21.326 1.959-3.102 1.57-8.357 6.025-9.102 7.717-0.127 0.287-0.53 0.925-0.895 1.417-2.072 2.788-4.089 8.121-5.16 13.647-0.561 2.893-0.939 22.208-0.458 23.434l0.241 0.615 14.379 1e-3c15.104 2e-3 15.589 0.032 16.521 1.023l0.543 0.578 0.062 13.189c0.069 14.464 0.091 14.203-1.256 15.118-0.556 0.377-1.601 0.412-15.585 0.516l-14.989 0.112v64.839c0 64.581 2e-3 64.84 0.448 65.166 0.593 0.434 48.289 0.334 51.23-0.107 14.457-2.169 25.778-10.379 34.289-24.865 0.485-0.825 2.784-5.455 3.277-6.599 0.159-0.369 0.466-1.074 0.683-1.566 2.559-5.801 4.653-15.235 5.264-23.714 0.281-3.896 0.284-190.77 4e-3 -194.52-1.911-25.531-15.592-40.702-40.385-44.786l-3.132-0.516-96.868-0.024c-53.277-0.014-97.724 0.045-98.769 0.131m198.1 1.981c8.361 1.529 13.207 3.053 11.298 3.552-0.247 0.065-0.448 0.206-0.448 0.315 0 0.318 0.592 0.227 0.895-0.138 0.466-0.561 1.707-0.259 4.027 0.979 3.482 1.86 4.431 2.487 4.371 2.888-0.031 0.211-0.013 0.255 0.041 0.099 0.097-0.286 1.852 0.516 1.852 0.847 0 0.565-1.58 0.588-2.391 0.034-0.469-0.32-1.688-1.052-2.708-1.625-1.297-0.729-1.747-1.083-1.496-1.18 0.198-0.075 0.296-0.239 0.22-0.363-0.214-0.347-0.784-0.266-0.784 0.111 0 0.451-0.385 0.328-2.518-0.804-1.838-0.975-8.123-2.523-13.254-3.263-3.964-0.573-190.43-0.748-196.87-0.185-5.387 0.471-9.461 1.157-13.355 2.251-1.07 0.301-2.202 0.546-2.516 0.546-0.315 0-0.572 0.089-0.572 0.197s-0.377 0.301-0.839 0.429c-3.357 0.932-9.054 3.582-13.581 6.317-1.541 0.931-2.71 1.509-2.759 1.364-0.046-0.139-0.234-0.253-0.417-0.253-1.997 0 7.825-5.86 12.003-7.162 0.554-0.172 1.057-0.376 1.119-0.452 0.192-0.238 6.524-2.296 8.501-2.763 4.392-1.038 9.717-1.898 12.416-2.005 6.159-0.244 196.37 0.01 197.76 0.264m-3.132 2.954c20.247 1.712 34.336 13.653 38.256 32.422 1.192 5.709 1.099-2.456 1.175 103.14 0.072 101.8 0.083 100.59-0.944 106.49-3.863 22.182-16.786 38.862-33.789 43.611-4.531 1.266-3.297 1.206-26.935 1.298-23.628 0.091-22.703 0.137-23.51-1.169-0.495-0.801-0.741-117.05-0.25-117.96 0.114-0.211 0.475-0.635 0.804-0.943l0.598-0.559 30.054-0.224v-19.798-19.799l-14.887-0.112c-18.919-0.142-16.804 0.956-16.789-8.714 0.023-15.385 4.229-24.54 13.356-29.068 5.622-2.789 16.845-2.722 24.907 0.15 2.513 0.894 2.708 0.81 3.058-1.315 1.076-6.548 2.888-17.679 3.546-21.791 0.433-2.707 0.938-5.778 1.122-6.823 1.592-9.059 2.043-12.584 1.651-12.905-0.841-0.69-9.297-2.789-14.199-3.525-20.078-3.016-39.04-0.532-53.036 6.946-19.333 10.33-33.081 34.223-34.419 59.819-0.074 1.415-0.163 5.357-0.198 8.759-0.096 9.275 1.177 8.467-13.337 8.467-8.152 0-10.932 0.067-11.133 0.268-0.389 0.39-0.389 38.896 0 39.285 0.201 0.201 2.98 0.268 11.129 0.268 11.975 1e-3 11.809-0.017 12.859 1.415l0.464 0.631v58.205c0 55.633-0.018 58.241-0.404 59.015-0.851 1.711 3.551 1.573-47.695 1.494l-45.861-0.07-2.883-0.62c-23.089-4.969-42.893-24.829-47.723-47.857l-0.623-2.974-0.07-96.532c-0.073-101.07-0.098-98.212 0.898-102.57 4.413-19.323 24.891-34.353 49.506-36.334 3.414-0.275 192.06-0.286 195.3-0.011m16.822 1.701c-0.233 0.233 0.062 0.528 0.529 0.528 0.239 0 0.434-0.151 0.434-0.336 0-0.331-0.687-0.469-0.963-0.192m9.003 4.827c-0.293 0.109-0.607 0.318-0.699 0.466-0.123 0.199-0.264 0.171-0.542-0.108-0.353-0.353-0.329-0.389 0.383-0.58 0.938-0.251 1.644-0.068 0.858 0.222m2.067 1.252c0.89 0.804 0.296 2.023-0.645 1.323-0.208-0.155-0.209-0.297-5e-3 -0.624 0.398-0.638-0.156-1.143-0.595-0.542-0.265 0.362-0.367 0.382-0.67 0.13-0.325-0.269-0.312-0.346 0.139-0.815 0.538-0.559 0.588-0.544 1.776 0.528m-257 1.868c0.422 0.602 0.287 0.855-0.37 0.689-0.645-0.163-0.877-0.521-0.574-0.886 0.336-0.405 0.555-0.359 0.944 0.197m259.03 0.167c0.338 0.358 0.615 0.868 0.615 1.134 0 0.362 0.1 0.451 0.4 0.355 0.556-0.176 2.18 1.733 1.767 2.076-0.339 0.281-0.668 0.094-1.023-0.581-0.156-0.297-0.474-0.503-0.774-0.503-0.618 0-1.546-1.157-1.346-1.679 0.111-0.288 0.01-0.347-0.505-0.291-0.517 0.055-0.658-0.027-0.713-0.416-0.063-0.44 0.049-0.535 0.852-0.72 0.062-0.014 0.389 0.267 0.727 0.625m-260.38 1.089c-0.348 0.557-1.491 0.662-1.388 0.128 0.1-0.516 1.103-1.04 1.408-0.735 0.146 0.146 0.139 0.353-0.02 0.607m-1.65 0.939c0 0.229 0.108 0.452 0.241 0.496 0.133 0.045 0.033 0.268-0.224 0.501-0.457 0.413-0.464 0.412-0.464-0.075 0-0.273-0.101-0.433-0.224-0.357s-0.224 0.355-0.224 0.62c0 0.833-1.738 2.399-2.495 2.248-0.667-0.134-0.823 0.1-0.368 0.555 0.208 0.209 0.208 0.328-3e-3 0.539-0.212 0.212-0.376 0.165-0.757-0.215l-0.487-0.487 2.294-2.249c2.215-2.172 2.711-2.46 2.711-1.576m265.94 2.458c0.151 0.241 0.208 0.61 0.128 0.819-0.094 0.244-0.059 0.327 0.095 0.232 0.57-0.352 3.84 5.468 5.132 9.136 0.925 2.627 2.335 8.028 2.216 8.49-0.062 0.24 0 0.571 0.138 0.737 0.36 0.434 0.256 1.898-0.152 2.126-0.187 0.105-0.341 0.444-0.341 0.752 0 0.644 0.375 0.524 0.673-0.215 0.196-0.485 0.339 0.146 0.271 1.198-0.249 3.874-0.244 3.982 0.195 4.097 0.464 0.121 0.698 190.98 0.234 190.98-0.31 0-0.511 2.04-0.234 2.373 0.241 0.29 0.177 1.949-0.142 3.723-0.147 0.821-0.607 1.119-0.864 0.56-0.071-0.154-0.066-0.033 0.011 0.269s0.28 0.69 0.453 0.862c0.172 0.173 0.265 0.479 0.207 0.682-0.059 0.202-0.173 0.839-0.255 1.415-0.254 1.801-1.201 1.114-1.092-0.792 0.206-3.606 0.639-6.905 0.921-7.014 0.344-0.132 0.394-0.665 0.071-0.773-0.146-0.049-0.241-33.248-0.279-97.524-0.045-76.64 1e-3 -97.373 0.215-97.092 0.241 0.317 0.273 0.303 0.279-0.118 4e-3 -0.262-0.186-0.614-0.423-0.783-0.572-0.407-0.997-3.425-0.536-3.808 0.435-0.361 0.36-0.887-0.146-1.019-0.3-0.078-0.487-0.378-0.582-0.93-0.632-3.701-2.038-8.039-3.576-11.039-0.297-0.579-0.48-1.208-0.407-1.398 0.084-0.219 7e-3 -0.346-0.212-0.346-0.189 0-0.405-0.192-0.48-0.427-0.074-0.234-0.678-1.291-1.342-2.349-0.664-1.057-1.152-1.922-1.085-1.922s-0.116-0.194-0.407-0.43c-0.419-0.343-0.459-0.454-0.192-0.542 0.184-0.061 0.486-0.161 0.671-0.223 0.531-0.177 0.549-0.17 0.837 0.292m-270.86 2.339c0 0.174 0.126 0.375 0.28 0.445 0.154 0.071 0.053 0.072-0.224 4e-3 -0.434-0.108-0.503-0.037-0.503 0.519 0 0.861-1.151 1.986-1.928 1.885-0.306-0.04-0.727 0.061-0.936 0.224s-0.114-0.055 0.211-0.486c0.48-0.635 0.741-0.783 1.38-0.783 0.49 0 0.724-0.084 0.618-0.224-0.429-0.563-0.433-1.037-0.011-1.459 0.515-0.515 1.113-0.582 1.113-0.125m-2.237 3.581c0 0.175-0.238 0.603-0.529 0.951-1.486 1.774-4.062 6.408-4.953 8.909-0.219 0.616-0.596 1.295-0.838 1.51-0.297 0.264-0.398 0.557-0.311 0.903 0.105 0.42 0.031 0.519-0.412 0.556-0.732 0.06-0.87-0.251-0.497-1.121 0.172-0.401 0.442-1.132 0.6-1.624s0.627-1.615 1.041-2.495c0.415-0.881 0.756-1.686 0.759-1.79 8e-3 -0.297 0.838-1.305 1.101-1.336 0.13-0.015 0.337-0.04 0.46-0.056 0.369-0.046 0.252-0.699-0.126-0.699-0.666 0 0.869-2.189 2.619-3.736 0.422-0.373 1.086-0.356 1.086 0.028m-3.132 2.925c0 0.308 0.09 0.559 0.2 0.559 0.261 0 0.509-0.653 0.347-0.915-0.244-0.394-0.547-0.197-0.547 0.356m-3.811 11.548c-0.242 0.96-0.593 2.665-0.777 3.777-0.537 3.243-0.574 10.904-0.495 101.34 0.079 89.72 0.106 95.306 0.477 97.203 0.216 1.108 0.471 2.467 0.567 3.021 0.443 2.572 2.359 8.202 3.893 11.432 0.541 1.14 0.753 1.852 0.66 2.21-0.112 0.427-0.068 0.5 0.233 0.384 0.205-0.078 0.372-0.057 0.372 0.047s0.805 1.516 1.79 3.139c0.984 1.622 1.789 3.145 1.789 3.383 0 0.239 0.151 0.434 0.336 0.434 0.47 0 0.42 0.834-0.066 1.094-0.451 0.241-2.211-2.216-4.07-5.68-0.528-0.985-1.059-1.916-1.18-2.07-0.147-0.186-0.133-0.385 0.042-0.595 0.291-0.351-0.04-0.709-0.431-0.467-0.123 0.076-0.224 8e-3 -0.224-0.152 0-0.251-0.443-1.251-1.474-3.321-0.443-0.891-2.257-6.403-2.795-8.496-0.61-2.371-0.815-3.786-1.104-7.606-0.348-4.613-0.172-194.19 0.182-195.53 0.147-0.554 0.429-1.787 0.626-2.741 0.34-1.64 0.594-2.086 0.829-1.454 0.076 0.206 0.211 0.177 0.508-0.106 0.55-0.524 0.602-0.4 0.312 0.748m226.07 8.493c6.17 0.524 15.772 2.284 15.772 2.892 0 0.114 0.361 0.194 0.802 0.178 0.442-0.017 0.88 0.093 0.973 0.245 0.094 0.151 0.595 0.305 1.113 0.342 1.452 0.103 1.479 0.195 0.952 3.3-0.258 1.516-0.726 4.367-1.04 6.336-0.315 1.968-0.672 4.133-0.794 4.809-0.122 0.677-0.317 1.87-0.434 2.651-0.117 0.782-0.313 1.542-0.436 1.69-0.122 0.148-0.172 0.465-0.11 0.705 0.101 0.391-0.956 7.47-1.804 12.068-0.181 0.985-0.539 3.139-0.795 4.787s-0.52 3.271-0.587 3.608l-0.122 0.611-1.153-0.438c-1.757-0.667-2.28-0.8-5.178-1.311-1.477-0.26-3.188-0.572-3.804-0.692-0.615-0.121-2.301-0.206-3.747-0.19-2.247 0.025-2.628-0.021-2.628-0.32 0-0.201-0.191-0.35-0.448-0.35-0.246 0-0.447 0.139-0.447 0.31 0 0.447-1.172 0.634-1.479 0.236-0.315-0.409-0.676-0.412-0.831-9e-3 -0.066 0.172-0.555 0.381-1.086 0.463-2.037 0.314-5.067 1.308-6.827 2.24-1.069 0.566-1.868 0.87-1.915 0.728-0.118-0.354-0.613 0.018-0.619 0.464-3e-3 0.208-0.41 0.677-0.905 1.043-0.494 0.366-1.457 1.247-2.14 1.958-0.683 0.71-1.333 1.292-1.444 1.292-0.112 0-0.184 0.075-0.159 0.168 0.024 0.092-0.614 1.174-1.419 2.405-0.805 1.23-1.537 2.537-1.628 2.905-0.143 0.58-0.194 0.616-0.385 0.275-0.378-0.677-0.67-0.182-0.513 0.868 0.085 0.57 0.053 1.107-0.078 1.267-0.282 0.347-1.436 4.538-1.984 7.213-0.355 1.726-0.414 3.099-0.414 9.635v7.622l0.601 0.908c1.277 1.931 0.602 1.857 16.933 1.857h14.372l-0.069 18.102c-0.038 9.957-0.153 18.186-0.256 18.289-0.102 0.102-6.646 0.237-14.541 0.298l-14.355 0.112-0.828 0.515c-0.455 0.283-1.059 0.887-1.342 1.342l-0.515 0.827-0.068 58.39c-0.073 62.824-0.122 60.124 1.115 61.533 1.298 1.477 0.752 1.442 22.428 1.441 25.337-1e-3 28.003-0.261 35.306-3.442 0.461-0.202 0.839-0.272 0.839-0.158 0 0.115-0.115 0.247-0.256 0.293-0.19 0.064-0.188 0.213 0.01 0.582 0.336 0.628-0.067 0.838-0.96 0.498-0.783-0.297-0.807-0.295-0.807 0.084 0 0.175 0.119 0.357 0.264 0.405 0.405 0.135-3.441 1.444-6.103 2.076-3.791 0.901-6.65 0.995-30.542 1l-22.621 5e-3 -0.139-0.838c-0.076-0.462-0.14-29.053-0.141-63.535l-3e-3 -62.696 14.374-5e-3c13.461-4e-3 14.431-0.031 15.278-0.415 1.106-0.503 2.054-1.587 2.229-2.551 0.172-0.943 0.017-28.102-0.164-28.684-0.076-0.246-0.146-0.516-0.156-0.6-9e-3 -0.084-0.243-0.184-0.52-0.224-0.336-0.047-0.482-0.201-0.438-0.463 0.036-0.215 0.036-0.411 0-0.434-0.036-0.024-6.911-0.099-15.278-0.168l-15.213-0.125-0.067-6.711c-0.114-11.351 0.709-18.061 2.779-22.658 0.293-0.649 0.532-1.273 0.532-1.385 0-0.113 0.208-0.351 0.463-0.529 0.254-0.178 0.438-0.461 0.409-0.628-0.08-0.447 0.433-1.468 1.52-3.028 0.53-0.761 0.964-1.478 0.964-1.595 0-0.387 0.731-0.864 0.838-0.546 0.198 0.589 0.557 0.263 0.427-0.388-0.118-0.59-0.076-0.661 0.363-0.615 0.347 0.036 0.498-0.069 0.499-0.347 3e-3 -0.645 1.906-2.447 2.267-2.147 0.499 0.413 1.043 0.051 0.883-0.588-0.087-0.347-0.045-0.557 0.111-0.557 0.139 0 0.558-0.258 0.933-0.573 2.026-1.706 6.911-3.349 10.569-3.555 0.985-0.056 2.016-0.169 2.293-0.25 0.376-0.111 0.504-0.057 0.504 0.213 0 0.425 0.575 0.487 0.764 0.082 0.104-0.224 0.157-0.224 0.261 0 0.155 0.331 0.988 0.379 0.988 0.056 0-0.3 1.5-0.288 1.686 0.013 0.086 0.139 0.426 0.175 0.824 0.088 0.436-0.096 0.738-0.052 0.846 0.123 0.125 0.202 0.43 0.215 1.193 0.053 1.19-0.254 2.149-0.125 2.317 0.312 0.123 0.32 0.964 0.434 0.964 0.131 0-0.096 0.68-0.181 1.51-0.187 2.8-0.023 3.292-0.253 4.234-1.986 0.393-0.722 1.04-3.49 1.282-5.482 0.301-2.471 1.067-6.165 1.379-6.648 0.354-0.548 0.434-1.63 0.12-1.63-0.112 0-0.098-0.416 0.032-0.951 0.128-0.523 0.261-1.252 0.296-1.622 0.088-0.918 0.607-4.2 1.364-8.612 1.475-8.598 0.962-9.539-5.967-10.948-14.054-2.857-29.013-2.709-40.858 0.403-0.878 0.231-1.713 0.491-1.854 0.579-0.142 0.088-0.707 0.159-1.256 0.159s-0.998 0.068-0.998 0.151c0 0.177-0.762 0.527-2.461 1.131-2.205 0.784-4.646 1.779-5.82 2.374-0.866 0.439-1.224 0.522-1.448 0.336-0.206-0.171-0.343-0.175-0.443-0.013-0.211 0.342-1.014 0.287-1.014-0.069 0-0.429 5.667-3.204 7.83-3.834 0.308-0.089 0.862-0.3 1.231-0.467 3.885-1.762 14.131-3.729 21.924-4.21 2.124-0.131 11.144 0.082 14.094 0.332m-34.955 3.722c-0.336 0.12-0.377 0.734-0.049 0.734 0.23 0 0.569-0.627 0.412-0.762-0.046-0.04-0.21-0.027-0.363 0.028m-10.028 5.112c0.5 0.5 0.445 0.566-0.356 0.425-0.831-0.146-1.082-0.277-1.082-0.566 0-0.343 1.058-0.239 1.438 0.141m-1.131 0.661c0.187 0.488-0.352 0.73-1.146 0.514-0.851-0.231-0.922-0.476-0.227-0.786 0.594-0.265 1.214-0.142 1.373 0.272m-1.813 0.887 0.395 0.543-1.29 0.823c-0.71 0.452-1.578 1.063-1.931 1.358-0.405 0.339-0.795 0.487-1.062 0.402-0.243-0.077-0.422-0.027-0.422 0.118 0 0.139 0.113 0.182 0.252 0.096 0.605-0.373-3e-3 0.375-0.924 1.138-2.081 1.726-6.916 6.655-7.116 7.255-0.044 0.131-0.267 0.238-0.495 0.238-0.478 0-0.792 0.368-0.42 0.492 0.139 0.046-0.105 0.524-0.552 1.082-0.44 0.549-1.21 1.577-1.71 2.285-0.609 0.862-1.062 1.286-1.374 1.286-0.372 0-0.444 0.109-0.361 0.545 0.057 0.3 0.02 0.677-0.082 0.839-0.142 0.224-0.188 0.227-0.19 0.015-2e-3 -0.154-0.155-0.28-0.339-0.28-0.243 0-0.336 0.249-0.336 0.903 0 0.851-0.027 0.888-0.476 0.648-0.371-0.199-0.518-0.188-0.667 0.048-0.3 0.473-0.236 0.638 0.248 0.638 0.585 0 0.592-0.025-0.447 1.539-0.492 0.741-0.895 1.455-0.895 1.587 0 0.131-0.237 0.614-0.527 1.073-0.289 0.459-0.603 1.086-0.696 1.394-0.094 0.307-0.352 0.912-0.573 1.342-1.374 2.675-3.273 7.751-4.073 10.885-0.163 0.639-0.411 1.009-0.791 1.183-0.531 0.242-0.538 0.27-0.164 0.683 0.489 0.54 0.291 1.322-0.226 0.894-0.282-0.235-0.333-0.173-0.333 0.403 0 0.374 0.109 0.716 0.241 0.76 0.147 0.049 0.18 0.323 0.084 0.703-0.155 0.62-0.157 0.621-0.576 0.171-0.602-0.646-0.582-2.468 0.034-2.995 0.344-0.295 0.401-0.486 0.237-0.793-0.435-0.813 2.513-9.056 4.893-13.684 2.242-4.359 2.919-5.597 3.886-7.102 3.148-4.902 8.754-11.754 9.158-11.194 0.149 0.208 0.173 0.182 0.084-0.095-0.159-0.497 4.113-4.556 4.365-4.148 0.198 0.319 0.425 0.135 0.505-0.409 0.047-0.324 3.784-3.209 4.159-3.211 0.061-1e-3 0.289 0.243 0.507 0.542m-28.248 43.559c0 0.256 0.16 0.583 0.356 0.726 0.296 0.216 0.317 0.409 0.121 1.143-0.994 3.736-1.372 9.239-1.372 19.977v10.548l-10.794 5e-3c-15.594 7e-3 -14.018-1.878-14.018 16.774s-1.576 16.766 14.018 16.773l10.794 5e-3v63.181c0 34.749-0.061 63.34-0.135 63.535-0.124 0.321-4.439 0.353-46.612 0.353-46.612 0-50.02-0.05-54.147-0.8-3.019-0.549-6.916-1.715-7.185-2.149-0.078-0.126-0.57-0.421-1.094-0.655-0.606-0.272-0.862-0.318-0.705-0.128 0.199 0.239 0.117 0.278-0.421 0.2-0.708-0.105-1.154-0.494-0.564-0.494 0.192 0 0.349-0.144 0.349-0.319 0-0.488 1.346-0.306 3.913 0.53 7.734 2.517 6.506 2.464 57.229 2.469 47.634 5e-3 45.046 0.08 46.479-1.353 1.435-1.435 1.358 2.246 1.284-61.635l-0.068-58.405-0.601-0.908c-1.242-1.877-1.093-1.856-13.228-1.856h-10.668l0.016-17.282c0.01-9.505 0.085-17.735 0.168-18.288l0.151-1.007 10.739-0.112c11.63-0.121 11.168-0.067 12.373-1.439 1.062-1.21 1.159-1.932 1.16-8.652 2e-3 -8.609 0.774-17.021 1.934-21.064 0.147-0.512 0.528-0.276 0.528 0.327m137.63 139.82c-0.322 0.322-0.361 1.522-0.049 1.522 0.121 0 0.28-0.277 0.354-0.616 0.074-0.338 0.174-0.741 0.221-0.894 0.109-0.355-0.176-0.362-0.526-0.012m-287.6 6.822c-0.251 0.252-0.153 0.516 0.193 0.516 0.185 0 0.336-0.095 0.336-0.21 0-0.282-0.35-0.485-0.529-0.306m287.12 0.292c0.54 0 0.541-0.025-0.136 2.855-0.811 3.443-2.38 8.531-3.208 10.397-0.233 0.525-0.65 1.508-0.926 2.185-0.522 1.277-1.84 3.857-3.126 6.119-0.601 1.056-0.784 1.239-0.948 0.946-0.111-0.2-0.297-0.305-0.413-0.234-0.332 0.206-0.244 0.735 0.135 0.814 0.257 0.054-0.072 0.696-1.278 2.501-0.893 1.335-1.661 2.317-1.706 2.181-0.223-0.668-1.707 0.322-1.567 1.046 0.06 0.312 0.151 0.285 0.573-0.168 0.547-0.587 0.711-0.189 0.199 0.484-0.613 0.807-3.426 3.889-4.139 4.535-0.412 0.374-1.295 1.201-1.962 1.839-0.916 0.876-1.363 1.15-1.823 1.119-0.481-0.033-0.602 0.051-0.572 0.394 0.047 0.537-0.369 0.87-3.853 3.076-2.328 1.475-4.315 2.146-3.777 1.275 0.085-0.138 0.035-0.324-0.111-0.414-0.163-0.101 0.358-0.492 1.354-1.016 0.891-0.468 2.395-1.378 3.342-2.023 1.282-0.874 1.693-1.065 1.611-0.75-0.061 0.233-0.011 0.423 0.112 0.423 0.362 0 0.784-0.64 0.651-0.987-0.076-0.199 0.193-0.562 0.702-0.947 0.454-0.344 1.292-1.058 1.862-1.588 0.806-0.75 1.065-0.888 1.167-0.622 0.203 0.529 0.804 0.403 1.04-0.218 0.117-0.308 0.316-0.559 0.442-0.559 0.327 0 0.285-0.614-0.05-0.738-0.176-0.065 0.104-0.508 0.752-1.193 1.326-1.399 3.915-4.735 5.014-6.459 0.47-0.738 1.082-1.694 1.359-2.125 1.056-1.643 2.712-4.909 3.742-7.382 0.59-1.415 1.259-2.976 1.488-3.468 0.519-1.118 1.152-3.273 2.268-7.718 0.985-3.922 1.097-4.268 1.249-3.859 0.058 0.154 0.298 0.279 0.533 0.279m-275.34 20.445c2.662 3.357 6.217 7.028 9.597 9.91 0.951 0.81 1.667 1.573 1.591 1.696-0.075 0.122 0 0.176 0.168 0.121 0.168-0.056 1.099 0.48 2.07 1.191s1.88 1.34 2.019 1.398c0.18 0.074 0.171 0.164-0.033 0.307-0.378 0.267-0.143 0.84 0.453 1.106 0.401 0.179 0.42 0.234 0.117 0.35-0.479 0.184-5.089-2.997-5.096-3.516-8e-3 -0.536-0.432-0.923-0.647-0.59-0.162 0.251-0.355 0.157-0.951-0.466-0.411-0.43-1.328-1.264-2.037-1.855-0.975-0.812-1.231-1.143-1.052-1.359 0.169-0.203 0.163-0.332-0.022-0.447-0.143-0.088-0.347-0.021-0.455 0.148-0.212 0.335-0.274 0.144-0.211-0.642 0.043-0.526-0.301-0.682-0.564-0.257-0.255 0.412-3.423-2.887-3.284-3.419 0.088-0.338 0.016-0.424-0.307-0.368-0.332 0.057-0.406-0.042-0.347-0.462 0.06-0.427-2e-3 -0.505-0.308-0.387-0.219 0.084-0.491 0.013-0.634-0.164-2.397-2.962-3.051-3.963-2.78-4.253 0.471-0.504 1.149-0.015 2.713 1.958m18.755 16.494c0.374 0.266 0.613 0.605 0.547 0.775-0.16 0.419 0.265 0.635 0.638 0.325 0.238-0.197 0.75-0.029 2.284 0.75 1.087 0.553 2.178 1.073 2.424 1.156 0.279 0.095 0.342 0.191 0.167 0.257-0.616 0.23-0.222 0.514 0.714 0.514 1.043 0 1.328 0.173 1.043 0.634-0.778 1.259-8.612-2.551-8.232-4.004 0.098-0.374 0.048-0.435-0.252-0.304-0.56 0.244-1.255 0.236-1.382-0.015-0.062-0.122 0.19-0.286 0.559-0.365s0.706-0.155 0.749-0.17c0.042-0.014 0.376 0.186 0.741 0.447m229.27 3.796c0 0.545 0.522 0.468 0.631-0.093 0.043-0.221-0.071-0.373-0.279-0.373s-0.352 0.191-0.352 0.466" fill="#fcfcfc"/>
<path d="m108.17 56.356c-1.103 0.132-1.108 0.136-0.336 0.274 0.927 0.165 2.237 2e-3 2.237-0.28 0-0.208-0.112-0.208-1.901 6e-3m7.494 5e-3c2.891 0.07 13.261 0.071 23.042 4e-3l17.786-0.123-23.043-3e-3c-12.673-2e-3 -20.677 0.053-17.785 0.122m52.349-3e-3c1.415 0.073 9.67 0.076 18.344 6e-3l15.772-0.126-18.344-6e-3c-10.09-3e-3 -17.187 0.053-15.772 0.126m44.359-0.04c0.712 0.044 1.82 0.044 2.461-1e-3 0.642-0.045 0.059-0.082-1.294-0.081-1.354 0-1.879 0.037-1.167 0.082m36.625 0.05c10.767 0.066 26.22 0.065 34.34-1e-3 9.199-0.075 1.82-0.12-19.575-0.12-27.35 0-30.356 0.025-14.765 0.121m51.628 0.232c0.603 0.368 0.89 0.411 1.63 0.245 0.493-0.111 1.523-0.164 2.287-0.118 1.388 0.083 1.389 0.083 0.384-0.147-0.554-0.126-1.689-0.18-2.523-0.118-0.922 0.068-1.464 0.03-1.385-0.099 0.072-0.116-0.152-0.21-0.497-0.21l-0.629 1e-3 0.733 0.446m-195.42-0.07c0.216 0.056 0.568 0.056 0.783 0 0.216-0.056 0.039-0.102-0.391-0.102-0.431 0-0.607 0.046-0.392 0.102m-3.132 0.447c0.216 0.057 0.568 0.057 0.783 0 0.216-0.056 0.039-0.102-0.391-0.102-0.431 0-0.607 0.046-0.392 0.102m6.808 0.169c-1.111 0.391-0.649 0.641 0.91 0.494 0.831-0.078 43.586-0.143 95.012-0.144 62.576-1e-3 93.426-0.076 93.276-0.226-0.299-0.3-188.35-0.423-189.2-0.124m197.89-0.169c0.216 0.057 0.568 0.057 0.783 0 0.216-0.056 0.039-0.102-0.391-0.102-0.431 0-0.607 0.046-0.392 0.102m-208.22 0.618c-1.354 0.275-3.289 0.718-4.301 0.983s-1.888 0.482-1.947 0.482-0.07 0.291-0.025 0.645c0.066 0.522 8e-3 0.626-0.306 0.544-0.406-0.106-1.084 0.507-0.836 0.756 0.079 0.079 0.144 0.026 0.144-0.118 0-0.143 0.253-0.261 0.563-0.261s1.644-0.293 2.964-0.652c1.321-0.359 3.333-0.827 4.471-1.04l2.069-0.387v-0.75c0-0.412-0.075-0.74-0.168-0.727-0.092 0.013-1.275 0.249-2.628 0.525m204.19 0.277c0.216 0.057 0.568 0.057 0.783 0 0.216-0.056 0.04-0.102-0.391-0.102s-0.607 0.046-0.392 0.102m9.066 0.426c0.096 0.501 0.034 0.54-0.874 0.555-0.836 0.013-0.591 0.123 1.708 0.763 1.476 0.41 3.179 0.907 3.783 1.102 1.243 0.403 2.369 0.465 2.369 0.132 0-0.123-0.076-0.212-0.168-0.197-0.908 0.143-1.49-0.056-1.076-0.369 0.239-0.181 0.327-0.329 0.196-0.329-0.132 0-0.365 0.151-0.518 0.336-0.303 0.365-0.895 0.456-0.895 0.138 0-0.109 0.201-0.25 0.448-0.315 0.246-0.064 0.439-0.252 0.429-0.417-0.013-0.226-0.045-0.232-0.13-0.021-0.186 0.46-0.971 0.336-0.971-0.155 0-0.351-0.37-0.544-1.957-1.018-1.077-0.321-2.068-0.62-2.202-0.664-0.149-0.049-0.205 0.131-0.142 0.459m-207.72-0.202c0.215 0.056 0.567 0.056 0.783 0 0.215-0.056 0.039-0.102-0.392-0.102-0.43 0-0.607 0.046-0.391 0.102m-13.255 1.537c-0.431 0.151-1.352 0.454-2.048 0.673-0.858 0.27-1.228 0.493-1.15 0.695 0.144 0.377-0.305 0.393-0.458 0.017-0.076-0.189-0.173-0.204-0.298-0.047-0.102 0.129-0.638 0.375-1.192 0.547-1.243 0.387-7.382 3.334-6.976 3.348 0.197 7e-3 0.245 0.168 0.146 0.482-0.127 0.399-0.09 0.438 0.24 0.253 0.214-0.12 0.563-0.173 0.774-0.118 0.211 0.056 1.48-0.444 2.82-1.11 1.341-0.665 3.015-1.44 3.721-1.72 0.706-0.281 1.236-0.589 1.177-0.684-0.119-0.192 0.639-0.44 1.36-0.445 0.28-2e-3 0.592-0.248 0.783-0.618 0.393-0.763 0.632-0.943 1.255-0.947 0.27-2e-3 0.557-0.111 0.638-0.242 0.226-0.367 0.06-0.384-0.792-0.084m228.19 1.171c0 0.343 0.118 0.409 0.577 0.321 0.538-0.103 0.57-0.062 0.467 0.59-0.061 0.386-0.019 0.701 0.094 0.701 0.112 0 0.204-0.151 0.204-0.335 0-0.185 0.108-0.336 0.24-0.336 0.131 0 0.09-0.149-0.092-0.332-0.183-0.182-0.366-0.42-0.408-0.529-0.175-0.458-1.082-0.525-1.082-0.08m2.063 1.341c-0.014 0.522 0.153 0.715 1.022 1.175 0.571 0.303 1.684 0.965 2.472 1.471 1.387 0.891 2.944 1.039 2.944 0.279 0-0.098-0.148-0.122-0.328-0.053-0.195 0.075-0.625-0.186-1.063-0.645-0.74-0.777-1.386-1.209-3.396-2.271-1.388-0.734-1.629-0.727-1.651 0.044m-243.53 3.292c-0.345 0.253-0.314 0.292 0.293 0.382 0.754 0.11 0.811 0.055 0.385-0.371-0.236-0.236-0.366-0.238-0.678-0.011m251.98 1.621c9e-3 0.447 0.382 0.763 0.509 0.432 0.07-0.183 0.067-0.392-6e-3 -0.466-0.188-0.188-0.507-0.166-0.503 0.034m-255.34 1.445c-0.185 0.707-0.047 0.737 0.848 0.184 0.983-0.607 0.987-0.678 0.038-0.678-0.592 0-0.785 0.107-0.886 0.494m257.47 0.527c0.336 0.27 0.365 0.378 0.129 0.474-0.405 0.166 0.133 0.527 0.548 0.368 0.316-0.121-0.479-1.192-0.885-1.192-0.125 0-0.031 0.157 0.208 0.35m-261.18 1.496c-0.012 0.268 0.151 0.391 0.515 0.391 0.292 0 0.665-0.176 0.828-0.391 0.252-0.333 0.249-0.35-0.018-0.112-0.172 0.154-0.486 0.28-0.697 0.28s-0.435-0.126-0.497-0.28c-0.067-0.167-0.12-0.122-0.131 0.112m262.04 0.264c-0.273 0.293-0.142 0.859 0.156 0.675 0.113-0.07 0.205-0.02 0.205 0.11s0.079 0.237 0.176 0.237c0.261 0 0.212-0.788-0.065-1.047-0.16-0.15-0.316-0.142-0.472 0.025m-262.68 0.984c-0.055 0.92-0.028 0.988 0.243 0.618 0.167-0.229 0.258-0.656 0.202-0.949-0.173-0.907-0.381-0.752-0.445 0.331m-2.493 1.324-1.472 1.511 0.876 0.071c1.059 0.087 2.447-1.141 2.671-2.365 0.211-1.156-0.412-0.921-2.075 0.783m266.72-1.365c-0.2 0.081-0.206 0.244-0.026 0.641 0.319 0.699 0.75 0.844 1.117 0.376 0.26-0.334 0.252-0.345-0.066-0.096-0.44 0.343-1.001-0.174-0.789-0.727 0.071-0.186 0.108-0.331 0.081-0.321s-0.17 0.067-0.317 0.127m1.275 1.792c-0.185 0.062-0.487 0.162-0.671 0.223-0.267 0.088-0.227 0.199 0.192 0.542 0.291 0.236 0.474 0.43 0.407 0.43s0.421 0.865 1.085 1.922c0.664 1.058 1.268 2.115 1.342 2.349 0.075 0.235 0.287 0.427 0.471 0.427 0.241 0 0.293 0.135 0.185 0.476-0.102 0.32-0.07 0.425 0.097 0.322 0.136-0.084 0.247-0.298 0.247-0.475 0-0.178 0.095-0.323 0.211-0.323 0.403 0 0.456 0.406 0.133 1.028-0.24 0.462-0.26 0.705-0.079 0.923 0.325 0.392 0.431 0.255 0.455-0.585 0.011-0.382 0.106-0.695 0.212-0.695 0.263 0-1.941-4.217-2.534-4.848-0.262-0.279-0.573-0.447-0.691-0.374-0.128 0.079-0.161-0.084-0.082-0.398 0.074-0.293 0.076-0.406 6e-3 -0.252-0.176 0.383-0.687 0.352-0.841-0.05-0.07-0.182 0.045-0.43 0.256-0.552 0.398-0.233 0.177-0.282-0.401-0.09m-270.67 3.74c-0.021 0.346-0.084 0.37-0.361 0.14-0.371-0.308-0.468 2e-3 -0.112 0.358 0.148 0.149-0.057 0.203-0.616 0.164l-0.838-0.06 0.783 0.203c0.901 0.233 1.455-0.117 1.278-0.806-0.105-0.408-0.109-0.408-0.134 1e-3m-2.735 1.869c-0.282 0.36-0.275 0.368 0.079 0.09 0.215-0.168 0.645-0.257 0.956-0.198 0.312 0.06 0.608 0.042 0.658-0.04 0.228-0.368-1.4-0.226-1.693 0.148m0.248 0.472c0 0.103-0.245 0.3-0.545 0.436-0.3 0.137-0.658 0.481-0.796 0.763l-0.25 0.515 0.424-0.484c0.233-0.266 0.816-0.693 1.296-0.95 0.695-0.373 0.77-0.468 0.371-0.468-0.275 0-0.5 0.085-0.5 0.188m277.55 1.831c-0.437 0.876-0.472 1.383-0.058 0.837 0.163-0.213 0.358-0.325 0.436-0.247 0.248 0.248 0.419-0.555 0.2-0.946-0.182-0.325-0.263-0.275-0.578 0.356m-279.93 0.791c-0.072 0.188-0.068 0.404 9e-3 0.481 0.076 0.077 0.139-0.037 0.139-0.252 0-0.216 0.125-0.348 0.28-0.293 0.157 0.055 0.254 0.382 0.221 0.745l-0.058 0.648 0.552-0.662c0.303-0.365 0.531-0.677 0.505-0.695-0.386-0.274-1.54-0.254-1.648 0.028m281.22 1.385c-0.079 0.277-0.294 0.503-0.478 0.503-0.215 0-0.294 0.141-0.218 0.392 0.064 0.215 0.434 1.427 0.821 2.693 0.388 1.266 0.852 3.072 1.032 4.013 0.18 0.94 0.35 1.727 0.379 1.747 0.404 0.291 1.514 0.496 1.303 0.241-0.139-0.167-0.19-0.468-0.113-0.668s0.032-0.364-0.1-0.364c-0.133 0-0.237-0.422-0.235-0.951 8e-3 -1.789-2.121-8.561-2.391-7.606m-281.26 0.112c-0.018 0.215-0.134 0.404-0.257 0.419-0.123 0.016-0.33 0.041-0.46 0.056-0.263 0.031-1.093 1.039-1.101 1.336-3e-3 0.104-0.364 0.945-0.802 1.869-0.807 1.7-0.883 2.162-0.252 1.532 0.469-0.47 0.599-0.436 0.617 0.157 0.014 0.492 0.021 0.49 0.264-0.056 0.136-0.308 0.689-1.455 1.227-2.549 0.63-1.283 0.946-2.198 0.888-2.573-0.05-0.32-0.106-0.406-0.124-0.191m-3.748 6.334c-0.245 0.973 0.135 1.527 0.75 1.096 0.666-0.466 0.638-0.775-0.071-0.775-0.472 0-0.549-0.079-0.432-0.447 0.078-0.246 0.087-0.448 0.019-0.448-0.067 0-0.187 0.259-0.266 0.574m-0.191 2.244c-0.412 0.301-0.403 0.314 0.17 0.267 0.586-0.049 0.781-0.264 0.433-0.479-0.093-0.058-0.365 0.038-0.603 0.212m0.03 1.153c-0.338 0.338-0.419 0.347-0.595 0.063-0.243-0.393-0.35-0.304-0.533 0.441-0.076 0.307-0.08 0.433-9e-3 0.278s0.214-0.229 0.317-0.165c0.104 0.064 0.473-0.133 0.82-0.439 0.348-0.305 0.578-0.558 0.512-0.562s-0.296 0.169-0.512 0.384m287.14 0.785c-0.208 0.251-0.22 0.394-0.041 0.504 0.331 0.205 0.501 0.011 0.407-0.467-0.068-0.35-0.104-0.353-0.366-0.037m0.85 0.116c0 0.219-0.197 0.566-0.437 0.772-0.575 0.492-0.421 2.36 0.233 2.829 0.235 0.169 0.424 0.521 0.42 0.783-7e-3 0.467-0.013 0.467-0.335 0.042-0.297-0.393-0.329-0.258-0.329 1.425 0 1.628 0.042 1.825 0.336 1.582 0.185-0.153 0.336-0.191 0.336-0.084 0.14 34.575-0.064 188.13-0.249 188.24-0.136 0.084-0.186 0.344-0.112 0.577 0.074 0.234 0.043 0.743-0.068 1.132-0.164 0.572-0.143 0.684 0.113 0.586 0.188-0.072 0.316 0.019 0.316 0.225 0 0.452-0.377 0.681-0.523 0.319-0.079-0.197-0.119-0.202-0.131-0.018-0.01 0.145 0.133 0.415 0.318 0.599 0.432 0.432 0.423 0.587-0.056 0.959-0.367 0.286-0.365 0.296 0.032 0.156 0.281-0.098 0.527-9e-3 0.728 0.266 0.166 0.228 0.303 0.315 0.303 0.193s-0.102-0.323-0.226-0.447c-0.263-0.263-0.036-2.325 0.256-2.325 0.464 0 0.23-190.86-0.234-190.98-0.389-0.102-0.418-0.28-0.322-1.976 0.103-1.796 0.09-1.859-0.355-1.742-0.263 0.068-0.462 0.013-0.462-0.129 0-0.227 0.481-0.358 0.979-0.268 0.107 0.02 0.132-0.127 0.056-0.327-0.077-0.2-0.146-0.581-0.154-0.848l-0.014-0.485-0.194 0.48c-0.298 0.739-0.673 0.859-0.673 0.215 0-0.308 0.137-0.642 0.303-0.74 0.344-0.203 0.633-1.409 0.338-1.409-0.106 0-0.193 0.179-0.193 0.397m-289.39 0.847c-0.055 0.177-0.147 0.473-0.204 0.657-0.08 0.254 0.084 0.336 0.671 0.336 0.627 0 0.776-0.086 0.776-0.448 0-0.246 0.025-0.511 0.056-0.59 0.03-0.078-0.227-0.173-0.572-0.21-0.396-0.042-0.664 0.052-0.727 0.255m0.413 1.688c-1.381 0.4-1.283-6.606-1.363 96.508-0.064 82.417 0.013 104.46 0.353 101.85 0.059-0.459 0.204-0.615 0.568-0.615h0.489l-0.067-95.246c-0.067-96.119-0.029-101.28 0.749-102.54 0.07-0.113 0.096-0.197 0.058-0.186-0.038 0.012-0.392 0.114-0.787 0.228m215.99 5.511c0.892 0.043 2.352 0.043 3.244 0 0.892-0.042 0.162-0.077-1.622-0.077s-2.514 0.035-1.622 0.077m-5.257 0.212c0.215 0.056 0.568 0.056 0.783 0s0.039-0.102-0.391-0.102c-0.431 0-0.607 0.046-0.392 0.102m13.426 6e-3c0.34 0.052 0.843 0.05 1.118-3e-3 0.276-0.053-3e-3 -0.095-0.618-0.093s-0.84 0.045-0.5 0.096m3.353 0.218c0.215 0.056 0.567 0.056 0.783 0 0.215-0.056 0.039-0.103-0.392-0.103s-0.607 0.047-0.391 0.103m-21.03 0.223c0.216 0.057 0.568 0.057 0.783 0 0.216-0.056 0.04-0.102-0.391-0.102s-0.607 0.046-0.392 0.102m22.936 0.497c0.073 0.494-4e-3 0.676-0.318 0.757-0.228 0.058 0.015 0.118 0.538 0.132 2.021 0.055 10.908 1.66 12.428 2.244 0.47 0.181 0.588 0.177 0.468-0.017-0.109-0.176-7e-3 -0.218 0.323-0.132 0.325 0.085 0.482 0.024 0.482-0.188 0-0.173 0.202-0.315 0.448-0.315 0.298 0 0.447 0.149 0.447 0.448 0 0.304-0.149 0.447-0.466 0.447-0.256 0-0.43 0.108-0.386 0.241 0.044 0.132 0.164 0.225 0.267 0.207 0.996-0.177 1.782 3.488 1.284 5.986-0.574 2.876-1.621 9.849-1.628 10.845-5e-3 0.586-0.074 1.025-0.155 0.976-0.08-0.05-0.157 0.202-0.17 0.559-0.027 0.739 0.245 0.899 0.3 0.176 0.079-1.049 0.385-0.879 0.605 0.335 0.132 0.729 0.101 0.848-0.187 0.737-0.19-0.072-0.415-0.017-0.502 0.123-0.103 0.167-0.21 0.106-0.309-0.177-0.122-0.348-0.173-0.291-0.258 0.295-0.059 0.399-0.024 0.726 0.078 0.726 0.301 0 0.211 1.095-0.135 1.63-0.312 0.483-1.078 4.177-1.379 6.648-0.371 3.054-1.228 5.972-1.869 6.368-0.119 0.074-0.16 0.307-0.093 0.518 0.096 0.298 0.074 0.315-0.095 0.078-0.179-0.251-0.261-0.23-0.453 0.112-0.203 0.363-0.516 0.418-2.375 0.418-1.178 0-2.141 0.076-2.141 0.168 0 0.314-0.846 0.169-0.976-0.168-0.185-0.484-0.741-0.413-0.878 0.112-0.09 0.343-0.306 0.447-0.921 0.447-0.853 0-1.162-0.552-0.413-0.736 0.215-0.053 0.05-0.052-0.368 1e-3 -0.479 0.061-0.829-0.013-0.947-0.199-0.143-0.225-0.189-0.202-0.192 0.095-1e-3 0.216-0.151 0.392-0.332 0.392-0.201 0-0.278-0.131-0.198-0.338 0.093-0.243 0.027-0.299-0.234-0.199-0.2 0.077-0.513 0.015-0.696-0.137-0.27-0.224-0.333-0.211-0.333 0.069 0 0.189 0.126 0.395 0.28 0.457s-0.042 0.12-0.434 0.13c-0.393 0.01-0.781 0.126-0.862 0.257-0.101 0.163 0.344 0.228 1.385 0.202 1.469-0.037 3.526 0.235 4.413 0.582 0.279 0.11 0.485 0.048 0.615-0.185 0.118-0.211 0.372-0.303 0.643-0.232 0.506 0.132 0.588 0.419 0.168 0.588-0.153 0.062 0.023 0.123 0.392 0.136 0.962 0.033 4.049 0.778 5.425 1.31 0.646 0.249 1.174 0.42 1.174 0.378 0-0.041 0.199-1.266 0.443-2.721 0.243-1.455 0.54-3.3 0.66-4.1s0.421-2.605 0.67-4.011 0.391-2.806 0.314-3.11c-0.087-0.346-0.054-0.5 0.088-0.412 0.144 0.089 0.192-0.204 0.132-0.806-0.07-0.7-0.034-0.858 0.139-0.61 0.184 0.266 0.234 0.196 0.239-0.335 3e-3 -0.37 0.062-0.923 0.13-1.231 0.106-0.477 0.088-0.502-0.126-0.168-0.369 0.578-0.629 0.476-0.501-0.197 0.062-0.323 0.29-0.634 0.505-0.691 0.415-0.108 0.845-2.272 0.548-2.753-0.081-0.13-0.034-0.374 0.105-0.541 0.138-0.167 0.347-0.942 0.464-1.724 0.117-0.781 0.312-1.974 0.434-2.651 0.122-0.676 0.479-2.841 0.793-4.809 0.314-1.969 0.769-4.738 1.011-6.153 0.553-3.23 0.552-3.207 7e-3 -2.916-0.621 0.333-1.357 0.285-1.357-0.087 0-0.176 0.126-0.363 0.28-0.416s0.102-0.069-0.116-0.036c-0.217 0.033-0.553-0.098-0.746-0.291-0.198-0.198-0.685-0.339-1.115-0.323-0.42 0.016-0.763-0.065-0.763-0.179 0-0.382-5.162-1.524-10.127-2.242-3.906-0.564-3.686-0.577-3.571 0.206m-29.591 0.593c-1.23 0.288-3.445 0.882-4.922 1.321-1.476 0.439-2.785 0.826-2.908 0.859s-0.566 0.232-0.985 0.443-0.9 0.384-1.07 0.384c-1.016 0-5.714 2.363-5.988 3.012-0.421 0.993-0.097 1.123 1.184 0.474 1.099-0.557 6.146-2.591 6.429-2.591 0.269 0 1.774-0.763 1.917-0.972 0.08-0.116 0.357-0.156 0.615-0.088 0.259 0.068 0.526 0.033 0.593-0.076 0.068-0.11 0.345-0.191 0.616-0.181s1.398-0.231 2.506-0.535c1.107-0.305 2.869-0.713 3.915-0.907 2.862-0.531 2.894-0.543 1.51-0.571-1.265-0.026-1.887-0.641-1.007-0.996 0.555-0.224-0.209-0.09-2.405 0.424m8.669 0.029c0.215 0.056 0.568 0.056 0.783 0s0.039-0.102-0.392-0.102c-0.43 0-0.606 0.046-0.391 0.102m18.459 4e-3c0.278 0.054 0.681 0.052 0.895-4e-3s-0.014-0.1-0.506-0.098c-0.492 3e-3 -0.667 0.049-0.389 0.102m-20.249 0.22c0.216 0.056 0.568 0.056 0.783 0 0.216-0.056 0.039-0.103-0.391-0.103-0.431 0-0.607 0.047-0.392 0.103m-14.003 2.409c-0.073 0.189-0.236 0.345-0.363 0.345-0.328 0-0.287-0.614 0.049-0.734 0.38-0.136 0.471-0.022 0.314 0.389m-11.705 4.895c1e-3 0.147 0.364 0.269 0.838 0.282 0.617 0.017 0.807-0.057 0.721-0.28-0.133-0.347-0.515-0.409-0.515-0.083 0 0.136-0.197 0.143-0.522 0.019-0.362-0.137-0.522-0.118-0.522 0.062m-2.312 1.168c0 0.192-0.101 0.286-0.225 0.209-0.234-0.144-3.811 2.256-3.771 2.531 0.073 0.506-0.093 0.714-0.569 0.714-0.589 0-4.607 3.645-4.607 4.179 0 0.163-0.126 0.295-0.281 0.295-0.246 0-0.912 0.728-3.869 4.227-1.564 1.851-3.104 4.156-3.138 4.699-0.02 0.32-0.05 0.747-0.066 0.948s-0.23 0.418-0.476 0.482c-0.3 0.078-0.438 0.29-0.417 0.641 0.03 0.524 0.03 0.524 0.127 0.021 0.101-0.523 0.735-0.714 0.741-0.223 2e-3 0.212 0.048 0.209 0.19-0.015 0.102-0.162 0.139-0.539 0.082-0.839-0.059-0.306 2e-3 -0.545 0.139-0.545 0.133 0 0.184-0.151 0.114-0.335-0.094-0.244 0.026-0.336 0.439-0.336 0.389 0 0.724-0.228 1.066-0.727 0.274-0.4 0.798-1.048 1.164-1.44 0.616-0.66 0.638-0.74 0.3-1.078-0.458-0.458-0.473-0.931-0.03-0.931 0.184 0 0.335 0.084 0.335 0.187 0 0.102 0.177 0.178 0.392 0.168 0.236-0.01 0.28-0.062 0.11-0.131-0.373-0.15-0.128-0.52 0.35-0.529 0.209-4e-3 0.718-0.457 1.132-1.007s0.835-0.999 0.935-0.999 0.487-0.454 0.861-1.007c0.374-0.554 0.585-1.007 0.47-1.007s-0.151-0.151-0.08-0.335c0.071-0.185 0.28-0.336 0.464-0.336 0.226 0 0.287 0.126 0.188 0.385-0.081 0.212 0.638-0.367 1.598-1.286 0.96-0.92 1.778-1.793 1.816-1.941 0.039-0.148 0.291-0.337 0.56-0.419 0.513-0.158 1.417-0.976 1.112-1.008-0.097-0.01 0.08-0.136 0.393-0.279 1.492-0.687 2.674-1.618 2.674-2.108 1e-3 -0.276 0.098-0.503 0.217-0.503 0.12 0 0.159-0.151 0.088-0.335-0.169-0.441-0.528-0.432-0.528 0.013m-18.412 19.704c-0.086 0.086-0.155 0.265-0.153 0.398s0.09 0.106 0.196-0.06c0.149-0.236 0.296-0.247 0.667-0.048 0.313 0.167 0.476 0.175 0.476 0.023 0-0.128-0.092-0.232-0.205-0.232s-0.345-0.053-0.515-0.119c-0.171-0.065-0.38-0.048-0.466 0.038m-0.38 0.992c0 0.098-0.196 0.24-0.436 0.316-0.293 0.093-0.391 0.263-0.3 0.518 0.075 0.209 0.057 0.308-0.041 0.22-0.097-0.088-0.627 0.718-1.178 1.79-0.55 1.072-1.158 2.202-1.351 2.509-0.334 0.532-0.331 0.543 0.051 0.229 0.382-0.313 0.395-0.257 0.262 1.119-0.115 1.189-0.095 1.348 0.116 0.889 0.141-0.307 0.267-0.76 0.28-1.006s0.14-0.426 0.282-0.399c0.141 0.026 0.321-0.209 0.4-0.522 0.079-0.314 0.391-0.963 0.694-1.443 0.302-0.479 0.55-0.976 0.55-1.104s0.255-0.618 0.566-1.088c0.334-0.505 0.507-1.007 0.423-1.226-0.129-0.337 0.1-0.481 0.633-0.397 0.465 0.073 0.088-0.384-0.392-0.476-0.307-0.059-0.559-0.027-0.559 0.071m-4.502 7.957c-0.2 0.414-0.267 0.752-0.15 0.752 0.121 0 0.149 0.292 0.066 0.671-0.093 0.422-0.058 0.671 0.094 0.671 0.133 0 0.242-0.245 0.242-0.545 0-0.299 0.087-0.777 0.193-1.062 0.347-0.928-0.031-1.342-0.445-0.487m68.737 1.423c-0.036 0.531 0.228 1.342 0.437 1.342 0.105 0 0.133-0.151 0.062-0.335-0.079-0.208 1e-3 -0.336 0.212-0.336 0.188 0 0.375 0.094 0.416 0.208 0.041 0.115 0.27 0.064 0.509-0.112 0.357-0.263 0.37-0.32 0.074-0.32-0.198 0-0.418-0.125-0.49-0.279-0.104-0.224-0.157-0.224-0.261 0-0.192 0.411-0.716 0.34-0.834-0.112-0.072-0.278-0.109-0.294-0.125-0.056m-1.895 0.28c0.056 0.092 0.291 0.167 0.521 0.167 0.255 0 0.458 0.197 0.52 0.504 0.067 0.334 0.094 0.271 0.082-0.19-0.016-0.604-0.095-0.689-0.622-0.671-0.333 0.012-0.558 0.097-0.501 0.19m-3.727 0.226c-5.384 1.382-7.159 2.425-7.159 4.207 0 0.1 0.831-0.258 1.846-0.795 1.658-0.878 4.96-1.993 6.429-2.172 0.73-0.089 0.829-0.7 0.181-1.114-0.382-0.243-0.715-0.275-1.297-0.126m1.79-0.082c0 0.109 0.161 0.261 0.359 0.337 0.225 0.086 0.308 0.283 0.223 0.527-0.128 0.368-0.119 0.368 0.169-2e-3 0.374-0.48 0.724-0.502 0.896-0.056 0.071 0.185 0.257 0.328 0.415 0.318 0.225-0.013 0.226-0.042 7e-3 -0.13-0.154-0.062-0.28-0.256-0.28-0.43s-0.201-0.317-0.447-0.317-0.447-0.101-0.447-0.224-0.202-0.223-0.448-0.223-0.447 0.09-0.447 0.2m-66.968 3.491c-0.777 2.104-1.261 3.803-1.263 4.432-1e-3 0.361-0.097 0.569-0.226 0.49-0.285-0.177-0.284 0.027 3e-3 0.563 0.177 0.331 0.117 0.528-0.28 0.913-0.278 0.27-0.38 0.42-0.226 0.333 0.2-0.113 0.289 0.084 0.313 0.694 0.028 0.698 0.051 0.738 0.128 0.223 0.078-0.516 0.152-0.581 0.414-0.364 0.237 0.197 0.32 0.199 0.32 7e-3 0-0.142-0.151-0.316-0.336-0.387s-0.336-0.215-0.336-0.321 0.177-0.127 0.392-0.046c0.341 0.127 0.352 0.098 0.089-0.226-0.263-0.323-0.231-0.404 0.247-0.622 0.375-0.171 0.624-0.544 0.786-1.18 0.131-0.511 0.388-1.458 0.572-2.104s0.248-1.175 0.143-1.175-0.222-0.528-0.259-1.174l-0.068-1.175-0.413 1.119m57.142 1.188c-0.01 0.161-0.111 0.235-0.226 0.164-0.114-0.071-0.275-0.021-0.357 0.112-0.083 0.134-0.418 0.181-0.76 0.106-0.509-0.112-0.76 0.018-1.489 0.769-1.018 1.049-1.053 1.169-0.374 1.273 0.332 0.05 0.504-0.038 0.504-0.258 0-0.183 0.1-0.334 0.224-0.334 0.123 0 0.223-0.158 0.223-0.352 0-0.253 0.178-0.334 0.63-0.287 0.723 0.076 1.938-0.752 1.758-1.199-0.092-0.23-0.119-0.228-0.133 6e-3m-5.107 3.846c0.05 0.184 0.335 0.354 0.633 0.376 0.427 0.033 0.447 0.016 0.094-0.081-0.246-0.068-0.531-0.238-0.632-0.377-0.122-0.168-0.154-0.14-0.095 0.082m-0.727 0.428c0 0.151-0.445 0.898-0.99 1.661-0.544 0.763-1.058 1.662-1.142 1.998-0.085 0.336-0.24 0.611-0.346 0.611s-0.134 0.153-0.062 0.341c0.097 0.252 0.207 0.278 0.422 0.1 0.214-0.178 0.31-0.157 0.365 0.082 0.041 0.178 0.782-0.761 1.646-2.087s1.439-2.36 1.278-2.298-0.491-0.066-0.732-0.285c-0.28-0.253-0.439-0.298-0.439-0.123m-53.468 2.899c0 0.272 0.207 0.716 0.459 0.987l0.459 0.492-0.371-0.893c-0.462-1.115-0.547-1.206-0.547-0.586m-0.193 1.538c-0.018 0.44-0.148 0.727-0.327 0.727-0.903 0-1.911 10.524-1.998 20.862l-0.054 6.432h0.503c0.485-1e-3 0.503 0.074 0.503 2.013v2.013h-1.23-1.231v-1.123-1.124l-0.605 0.397c-0.551 0.361-1.554 0.406-11.353 0.508l-10.749 0.112-0.151 1.007c-0.083 0.553-0.158 8.783-0.168 18.288l-0.016 17.282h10.691c10.046 0 10.741 0.026 11.521 0.423l0.83 0.424v-1.095-1.094h1.231 1.23v17.561c0 15.422-0.04 17.562-0.334 17.562-0.291 0-0.341-1.755-0.393-13.926-0.032-7.66-0.072 11.04-0.087 41.554-0.016 30.515 0.017 55.305 0.074 55.09 0.056-0.215 0.246-0.392 0.421-0.392 0.266 0 0.319 0.762 0.319 4.575v4.575l-2.572 0.162 1.486 0.042c1.175 0.034 1.514-0.032 1.622-0.311 0.074-0.195 0.135-28.786 0.135-63.535v-63.181l-10.57 0.051c-5.814 0.028-8.582 0.08-6.152 0.117 4.231 0.062 4.418 0.084 4.418 0.508 0 0.427-0.165 0.443-4.586 0.443h-4.586v-0.549c0-0.43-0.206-0.641-0.951-0.974-2.439-1.092-2.385-0.723-2.385-16.374 0-18.652-1.576-16.767 14.018-16.774l10.794-5e-3v-10.548c0-10.738 0.378-16.241 1.372-19.977 0.192-0.719 0.173-0.928-0.099-1.127-0.184-0.135-0.381-0.492-0.437-0.795-0.086-0.457-0.109-0.427-0.134 0.176m49.836 2.594c-0.314 0.692-0.308 0.731 0.11 0.719 0.287-8e-3 0.499 0.185 0.602 0.546 0.125 0.437 0.165 0.333 0.182-0.476 0.03-1.385-0.437-1.797-0.894-0.789m-1.483 4.621c-1.029 3.783-1.448 9.398-1.359 18.233l0.067 6.711 15.213 0.125c16.799 0.138 15.419 0.089 15.246 0.539-0.069 0.181-0.014 0.398 0.123 0.482 0.136 0.085 0.188 0.056 0.114-0.064-0.074-0.119 0.061-0.359 0.301-0.531 0.279-0.201 0.435-0.577 0.435-1.048 0-0.706 0.033-0.733 0.893-0.733h0.894l0.059 16.946 0.058 16.946 0.055-17.058 0.054-17.058h-14.358c-16.316 0-15.643 0.074-16.92-1.857l-0.601-0.908v-7.622c0-5.728 0.078-7.975 0.315-9.041 0.227-1.025 0.246-1.462 0.067-1.573-0.137-0.084-0.278-0.905-0.315-1.824l-0.067-1.672-0.274 1.007m30.014 26.304c0.195 0.195 0.297 0.447 0.227 0.56s-0.021 0.205 0.11 0.205c0.267 0 0.3-0.245 0.101-0.764-0.075-0.195-0.284-0.354-0.464-0.354-0.276 0-0.272 0.055 0.026 0.353m0.678 14.971c0 7.014 0.029 9.85 0.063 6.304 0.035-3.546 0.035-9.284 0-12.751-0.035-3.468-0.063-0.566-0.063 6.447m-0.62 15.413c-0.091 0.233-0.113 0.476-0.049 0.54 0.204 0.204 0.383-0.13 0.298-0.555-0.078-0.389-0.09-0.389-0.249 0.015m-31.473 64.621c1e-3 34.482 0.065 63.073 0.141 63.535l0.139 0.838h1.872 1.872v-0.817c0-0.677-0.154-0.949-0.893-1.582-1.706-1.46-1.578 3.771-1.513-61.718l0.057-58.622 0.601-0.908c1.268-1.916 0.755-1.856 15.788-1.856 8.577 0 13.276-0.079 13.365-0.224 0.092-0.148-4.509-0.223-13.633-0.223-13.603 0-13.772-6e-3 -13.772-0.446 0-0.439 0.187-0.446 12.137-0.505l12.136-0.06-28.3-0.108 3e-3 62.696m-48.325-13.591c0 3.928-0.048 4.586-0.335 4.586-0.288 0-0.336-0.658-0.336-4.586 0-3.927 0.048-4.586 0.336-4.586 0.287 0 0.335 0.659 0.335 4.586m0 27.405c0 11.981-0.041 13.647-0.335 13.647-0.295 0-0.336-1.666-0.336-13.647s0.041-13.646 0.336-13.646c0.294 0 0.335 1.665 0.335 13.646m139.3-3.467c-0.873 0.638-1.264 6.875-0.454 7.244 0.452 0.206 0.528 0.181 0.528-0.178 0-0.231-0.157-0.479-0.349-0.553-0.249-0.095-0.329-0.371-0.28-0.957 0.068-0.802 0.629-1.373 0.629-0.64 0 0.202 0.101 0.305 0.224 0.229 0.307-0.19 0.28-0.471-0.083-0.833-0.168-0.169-0.368-0.553-0.445-0.855s-0.082-0.423-0.011-0.269c0.244 0.531 0.714 0.277 0.826-0.448 0.063-0.4 0.19-0.969 0.284-1.265 0.12-0.38 0.095-0.492-0.085-0.381s-0.217-0.037-0.125-0.497c0.155-0.776-0.099-1.007-0.659-0.597m0.421 0.839c-0.047 0.153-0.147 0.556-0.221 0.894-0.074 0.339-0.233 0.616-0.354 0.616-0.312 0-0.273-1.2 0.049-1.522 0.35-0.35 0.635-0.343 0.526 0.012m-288.93 0.633c2e-3 0.421 0.095 0.91 0.208 1.089 0.133 0.209 0.16-0.028 0.078-0.671-0.158-1.236-0.291-1.429-0.286-0.418m-1.07 0.877c0 0.43 0.046 0.606 0.102 0.391s0.056-0.568 0-0.783-0.102-0.039-0.102 0.392m0.21 1.263c0.043 0.225 0.263 0.445 0.488 0.488 0.295 0.057 0.387-0.035 0.33-0.33-0.043-0.225-0.263-0.445-0.488-0.488-0.296-0.057-0.387 0.035-0.33 0.33m0.839 1.263c-0.469 1.035-0.264 1.732 0.432 1.471 0.354-0.132 0.483-0.313 0.392-0.55-0.075-0.193-0.136-0.646-0.136-1.005 0-0.861-0.275-0.827-0.688 0.084m0.505 2.682c-0.229 0.276 1.071 4.652 1.838 6.19 0.991 1.987 1.477 3.07 1.477 3.289 0 0.139 0.171 0.238 0.379 0.221 0.451-0.037 0.956 0.849 0.96 1.689 7e-3 1.218 3.764 7.28 4.054 6.54 0.37-0.945-0.373-3.099-1.177-3.414-0.105-0.041-0.14-0.158-0.078-0.259s-0.088-0.131-0.334-0.066c-0.312 0.081-0.448 7e-3 -0.448-0.245 0-0.199 0.097-0.361 0.216-0.361s9e-3 -0.353-0.246-0.783c-0.254-0.431-0.578-0.783-0.721-0.783-0.402 0-0.852-0.873-0.699-1.355 0.106-0.336 0.055-0.401-0.231-0.291-0.308 0.118-0.35 0.023-0.256-0.574 0.091-0.58 0.056-0.667-0.188-0.465-0.237 0.196-0.277 0.16-0.191-0.17 0.06-0.23-0.16-1.016-0.489-1.746-0.329-0.731-1.087-2.628-1.685-4.217-0.597-1.589-1.197-2.998-1.331-3.132-0.178-0.176-0.204-0.134-0.097 0.149 0.106 0.276 0.039 0.391-0.225 0.391-0.273 0-0.336-0.121-0.233-0.447 0.163-0.514 0.049-0.576-0.295-0.161m286.68 0.161c-0.076 0.184-0.495 1.795-0.931 3.579-0.437 1.784-0.952 3.697-1.145 4.251-0.193 0.553-0.342 1.334-0.332 1.733 0.011 0.4-0.056 0.728-0.149 0.728-0.092 0-0.279 0.294-0.415 0.654-0.202 0.535-0.19 0.632 0.063 0.535 0.171-0.065 0.31-0.256 0.31-0.425 0-0.168 0.298-0.46 0.663-0.648 0.483-0.25 0.73-0.6 0.912-1.292 0.137-0.523 0.4-1.403 0.585-1.956 0.361-1.081 1.643-6.309 1.643-6.7 0-0.129-0.193-0.236-0.429-0.236-0.235 0-0.475-0.125-0.533-0.279-0.076-0.204-0.142-0.189-0.242 0.056m-2.823 12.975c0 0.246 0.047 0.448 0.104 0.448s0.212-0.202 0.344-0.448c0.191-0.357 0.17-0.447-0.104-0.447-0.195 0-0.344 0.194-0.344 0.447m-1.19 0.313c-0.081 0.21-0.058 0.327 0.05 0.26 0.109-0.068 0.261 0.129 0.338 0.435 0.171 0.682 0.379 0.705 0.765 0.087 0.167-0.267 0.187-0.405 0.048-0.318-0.136 0.084-0.429-0.072-0.651-0.347-0.362-0.446-0.419-0.459-0.55-0.117m-273.98 3.378c0 0.185-0.101 0.336-0.224 0.336s-0.224-0.151-0.224-0.336c0-0.184 0.101-0.335 0.224-0.335s0.224 0.151 0.224 0.335m272.22 0.672c-0.084 0.246-0.607 1.277-1.163 2.293-0.555 1.015-0.903 1.845-0.772 1.845s0.191 0.244 0.133 0.545c-0.057 0.3-0.02 0.677 0.083 0.839 0.142 0.225 0.187 0.207 0.19-0.079 2e-3 -0.205 0.079-0.406 0.171-0.447 0.549-0.244 2.23-3.529 1.907-3.728-0.137-0.085-0.282-0.505-0.323-0.935-0.058-0.612-0.107-0.684-0.226-0.333m-271.5 1.372c-0.271 0.29 0.383 1.291 2.78 4.253 0.143 0.177 0.415 0.248 0.634 0.164 0.306-0.118 0.368-0.04 0.308 0.387-0.059 0.42 0.015 0.519 0.347 0.462 0.32-0.055 0.395 0.031 0.31 0.355-0.133 0.51 3.042 3.819 3.286 3.424 0.081-0.131 0.393-0.239 0.694-0.239 0.477 0 0.296-0.26-1.404-2.025-1.661-1.724-2.032-2.005-2.49-1.89-0.49 0.123-0.528 0.078-0.421-0.484 0.24-1.255-3.343-5.158-4.044-4.407m139.33 4.444c0 3.927-0.048 4.586-0.335 4.586-0.288 0-0.336-0.659-0.336-4.586s0.048-4.586 0.336-4.586c0.287 0 0.335 0.659 0.335 4.586m128.04 1.454c-0.445 0.677-1.154 1.658-1.577 2.181l-0.768 0.951 0.631-0.016c1.015-0.025 1.339-0.249 2.241-1.55 1.331-1.92 1.7-2.528 1.432-2.363-0.136 0.084-0.247 0.054-0.247-0.066s0.126-0.262 0.28-0.316c0.154-0.053-0.05-0.087-0.452-0.074-0.63 0.02-0.844 0.194-1.54 1.253m-258.33 3.536c-0.062 0.1-0.075 0.377-0.031 0.616 0.045 0.239 0.089 0.543 0.099 0.675 9e-3 0.133 0.767 0.85 1.685 1.595 0.917 0.744 1.617 1.404 1.556 1.465s0.044 0.171 0.234 0.244 0.345 0.035 0.345-0.084c0-0.442 0.444-0.198 0.572 0.315 0.119 0.471 1.308 1.475 3.816 3.221l0.697 0.485-0.078-0.673c-0.043-0.37-0.179-0.861-0.301-1.09-0.303-0.565-3.177-2.598-3.554-2.513-0.167 0.038-0.236-0.039-0.154-0.171 0.086-0.14-0.05-0.238-0.332-0.238-0.268 0-0.441-0.116-0.392-0.263 0.048-0.145-0.693-0.951-1.647-1.791-0.954-0.841-1.796-1.629-1.872-1.751-0.166-0.268-0.49-0.289-0.643-0.042m255.27 0.578c-0.193 0.294-0.918 1.148-1.612 1.898-1.153 1.245-1.231 1.393-0.906 1.718 0.196 0.196 0.356 0.248 0.356 0.116s0.227-0.242 0.503-0.245c0.795-8e-3 1.999-1.56 2.103-2.709 0.047-0.525 0.21-1.034 0.362-1.13 0.198-0.126 0.173-0.176-0.09-0.179-0.201-2e-3 -0.523 0.237-0.716 0.531m-4.972 5.297c-0.362 0.378-1.185 1.094-1.83 1.592-1.333 1.029-1.348 1.243-0.081 1.174 1.38-0.075 2.671-1.117 2.818-2.275 0.137-1.087-0.175-1.256-0.907-0.491m-239.11 3.234c-0.106 0.275-0.048 0.297 0.297 0.112 0.56-0.3 0.744-0.29 0.547 0.029-0.105 0.171-0.06 0.198 0.133 0.078 0.184-0.114 0.404-0.028 0.594 0.232 0.166 0.227 0.301 0.298 0.301 0.159 0-0.697-1.635-1.229-1.872-0.61m233.3 1.253c-1.107 0.742-1.984 1.455-1.948 1.584 0.039 0.141-0.141 0.183-0.447 0.106-0.465-0.117-0.477-0.102-0.122 0.164 0.522 0.391 0.494 0.674-0.112 1.116-0.772 0.565 0.712-0.159 2.405-1.173 2.062-1.234 2.231-1.405 2.303-2.328 0.036-0.461 0.036-0.834 0-0.828-0.036 5e-3 -0.972 0.617-2.079 1.359m-230.87-0.251c-0.076 0.123-0.02 0.223 0.124 0.223 0.159 0 0.222 0.218 0.159 0.548-0.108 0.563 3.849 2.85 4.042 2.336 0.041-0.11 0.343-0.213 0.671-0.229 0.527-0.027 0.538-0.042 0.093-0.128-0.501-0.096-0.717-0.513-0.266-0.513 0.13 0 0.17-0.107 0.089-0.239-0.081-0.131-0.2-0.186-0.264-0.121-0.065 0.064-1.057-0.382-2.206-0.992-2.3-1.221-2.247-1.202-2.442-0.885m5.984 2.839c0.459 0.119 0.495 0.323 0.123 0.695-0.148 0.148-0.205 0.269-0.128 0.269 0.282 0 0.845-0.713 0.721-0.913-0.07-0.113-0.348-0.194-0.617-0.18-0.379 0.02-0.401 0.05-0.099 0.129m220.72 0.047c0.17 0.108 0.244 0.301 0.164 0.429-0.079 0.128-0.063 0.283 0.036 0.344 0.099 0.062 0.2-0.133 0.225-0.432 0.032-0.385-0.068-0.542-0.344-0.539-0.308 2e-3 -0.325 0.044-0.081 0.198m-0.923 0.191c-0.484 0.108-0.492 0.293-0.038 0.851 0.345 0.424 0.35 0.424 0.216 5e-3 -0.077-0.242-0.015-0.506 0.143-0.603 0.362-0.224 0.182-0.365-0.321-0.253m-218.96 0.628c0 0.177-0.157 0.322-0.349 0.322s-0.289 0.096-0.216 0.213c0.077 0.126 0.337 0.137 0.628 0.027 0.323-0.121 0.731-0.075 1.167 0.133 0.566 0.269 0.61 0.27 0.28 4e-3 -0.581-0.468-0.475-0.778 0.224-0.651 0.338 0.061 0.55 0.041 0.47-0.046-0.311-0.336-2.204-0.338-2.204-2e-3m2.684 0.438c0 0.162-0.106 0.329-0.236 0.373-0.653 0.217 0.204 0.87 1.834 1.395 2.149 0.694 2.429 0.709 2.429 0.129 0-0.374 0.157-0.451 0.951-0.471 0.913-0.022 0.888-0.039-0.615-0.419-0.861-0.218-2.195-0.6-2.964-0.848-1.073-0.347-1.399-0.384-1.399-0.159m213.2 0.15c-2.563 0.91-6.401 1.809-8.725 2.044l-0.783 0.079 0.839 0.036c0.86 0.036 1.278 0.951 0.559 1.222-0.154 0.058 0.173 0.054 0.727-9e-3 1.625-0.186 6.747-1.524 7.82-2.042 0.544-0.263 1.146-0.486 1.338-0.496 0.231-0.011 0.255-0.056 0.07-0.13-0.154-0.062-0.279-0.255-0.279-0.43 0-0.376 0.028-0.38 0.768-0.099 0.799 0.304 0.718 0.111-0.132-0.313-0.817-0.408-0.632-0.419-2.202 0.138m-202.96 2.129c0.277 0.053 0.73 0.053 1.007 0 0.277-0.054 0.05-0.097-0.503-0.097-0.554 0-0.781 0.043-0.504 0.097m2.629 1.421c0.492 0.101 1.7 0.176 2.685 0.165l1.789-0.02-1.342-0.167c-1.994-0.247-4.354-0.231-3.132 0.022m187.81-0.013c0 0.268 1.052 0.268 1.677 0 0.337-0.145 0.185-0.196-0.615-0.208-0.584-9e-3 -1.062 0.085-1.062 0.208m-121.18 0.167c1.329 0.039 3.443 0.039 4.698-1e-3 1.254-0.039 0.167-0.072-2.417-0.072-2.584 1e-3 -3.611 0.033-2.281 0.073" fill="#fcfcf4"/>
<path d="m110.07 56.323c0 0.328-1.404 0.49-2.369 0.272-0.568-0.128-1.771-0.068-3.604 0.179l-2.752 0.372v0.695 0.696l1.398-0.281c0.77-0.155 2.294-0.331 3.388-0.392s2.051-0.202 2.125-0.312c0.075-0.111 0.335-0.276 0.577-0.365 0.657-0.244 188.95-0.182 189.24 0.062 0.137 0.112 1.305 0.27 2.597 0.351 2.921 0.184 5.445 0.489 7.541 0.912 2.517 0.507 3.694 0.449 3.604-0.178-0.122-0.86-7.368-1.983-9.581-1.485-1.022 0.229-1.814-0.015-0.89-0.276 0.48-0.135 0.449-0.156-0.226-0.151-0.431 4e-3 -1.026-0.071-1.322-0.167-0.384-0.124-0.492-0.099-0.378 0.086 0.107 0.172-0.049 0.257-0.468 0.255-0.505-3e-3 -0.563-0.05-0.293-0.24 0.249-0.176 0.118-0.201-0.511-0.097-0.465 0.077-16.069 0.114-34.675 0.082-35.835-0.062-50.516-0.07-79.579-0.042-9.905 9e-3 -20.174 6e-3 -22.819-7e-3 -2.646-0.013-15.028 0.01-27.517 0.052s-22.883 6e-3 -23.098-0.081c-0.216-0.088-0.392-0.06-0.392 0.06m-18.422 3.287c-0.072 0.19-0.362 0.347-0.642 0.349-0.617 4e-3 -0.87 0.174-1.238 0.832-0.337 0.604-0.356 0.804-0.057 0.619 0.123-0.076 0.438-0.179 0.701-0.23s0.628-0.305 0.81-0.566c0.195-0.278 0.493-0.431 0.722-0.372 0.28 0.074 0.382-0.025 0.365-0.353-0.03-0.561-0.48-0.75-0.661-0.279m-3.823 2.112c-0.773 0.303-0.038 0.42 0.769 0.122 0.675-0.249 0.705-0.289 0.223-0.29-0.307-1e-3 -0.754 0.075-0.992 0.168m-9.075 3.379c0 0.123-0.176 0.231-0.391 0.241-0.234 0.011-0.279 0.063-0.112 0.131 0.552 0.222 0.265 0.431-0.474 0.345-0.932-0.109-3.708 1.588-3.716 2.271-4e-3 0.302-0.111 0.375-0.396 0.266-0.324-0.123-0.341-0.098-0.097 0.144 0.243 0.242 0.345 0.224 0.584-0.099 0.179-0.242 0.586-0.391 1.069-0.391 0.536 0 1.368-0.35 2.66-1.118 1.034-0.616 1.981-1.12 2.104-1.122s0.078-0.096-0.1-0.209c-0.2-0.126-0.486-0.117-0.748 0.023-0.368 0.197-0.405 0.165-0.277-0.239 0.081-0.257 0.091-0.467 0.021-0.467s-0.127 0.101-0.127 0.224m248.36 0.867c-0.243 0.154-0.235 0.213 0.039 0.319 0.186 0.071 0.458-0.016 0.606-0.193 0.309-0.372-0.123-0.457-0.645-0.126m1.562 1.146c-0.142 0.408-0.151 0.671-0.022 0.671 0.117 0 0.212-0.139 0.212-0.309s0.227-0.372 0.503-0.448c0.42-0.115 0.448-0.174 0.168-0.358-0.509-0.334-0.607-0.284-0.861 0.444m0.906 1.018c-0.328 0.372 0.13 0.694 0.675 0.475 0.183-0.074 0.148-0.122-0.098-0.133s-0.338-0.138-0.255-0.353c0.16-0.419 0.054-0.415-0.322 0.011m1.813 0.915c0.323 0.094 0.35 0.182 0.136 0.44-0.218 0.263-0.198 0.295 0.109 0.177 0.483-0.185 0.34-0.635-0.22-0.691-0.378-0.038-0.381-0.03-0.025 0.074m0.694 1.01c-0.104 0.168-0.061 0.197 0.123 0.083 0.165-0.102 0.365-0.046 0.479 0.133 0.154 0.244 0.196 0.227 0.198-0.083 4e-3 -0.439-0.554-0.531-0.8-0.133m3.443 3.665c-0.246 0.246 0.069 0.775 0.461 0.771 0.231-2e-3 0.276-0.064 0.121-0.168-0.135-0.09-0.288-0.296-0.34-0.458-0.052-0.161-0.16-0.227-0.242-0.145m-271.27 2.609c-0.362 0.362-0.338 0.738 0.067 1.074 0.392 0.325 0.458-0.012 0.076-0.393-0.196-0.196-0.189-0.343 0.028-0.604 0.338-0.408 0.215-0.463-0.171-0.077m-1.813 2.054c-0.207 0.25-0.128 0.329 0.408 0.407 0.737 0.108 1.441-0.179 1.239-0.506-0.197-0.32-1.357-0.25-1.647 0.099m276.43 1.182c0.317 0.127 0.388 0.553 0.079 0.467-0.111-0.031-0.212 0.019-0.224 0.111-0.076 0.568 0.017 0.649 0.306 0.267 0.257-0.34 0.336-0.361 0.362-0.099 0.05 0.503 0.05 0.51-0.117 1.214-0.131 0.558-0.106 0.614 0.173 0.382 0.81-0.672 0.332-2.529-0.635-2.469-0.123 7e-3 -0.098 0.064 0.056 0.127m-276.87 0.468c-1.182 0.823-2.027 1.802-1.672 1.938 0.715 0.274 1.184 0.104 1.648-0.597l0.481-0.727-0.571 0.666c-0.449 0.524-0.63 0.608-0.843 0.395-0.336-0.336 0.384-1.182 1.456-1.711 0.387-0.191 0.553-0.344 0.369-0.34-0.185 4e-3 -0.575 0.173-0.868 0.376m277.71 2.261c-0.212 0.552 0.329 1.82 0.776 1.82 0.523 0 0.761-0.916 0.427-1.649-0.275-0.603-0.998-0.706-1.203-0.171m-280.06 0.831c-0.067 0.175-0.032 0.318 0.079 0.318s0.236 0.227 0.278 0.504c0.076 0.502 0.077 0.502 0.338 0.038 0.216-0.384 0.189-0.526-0.155-0.822-0.353-0.301-0.437-0.307-0.54-0.038m-2.848 5.868c-0.739 0.77-0.763 1.428-0.049 1.346 0.557-0.064 0.644-0.176 0.705-0.911 0.075-0.911-0.092-1.022-0.656-0.435m-1.003 2.719c0.019 0.539 0.077 0.609 0.311 0.375 0.159-0.158 0.223-0.456 0.144-0.662-0.228-0.596-0.481-0.437-0.455 0.287m287.62-0.159c-8e-3 0.338 0.085 0.615 0.208 0.615 0.263 0 0.263-0.172 0-0.783-0.17-0.396-0.194-0.377-0.208 0.168m-287.68 2.199c-0.289 0.235-0.606 0.378-0.703 0.318-0.098-0.06-0.242 0.058-0.32 0.263-0.169 0.439 0.246 0.752 0.872 0.656 0.304-0.046 0.494-0.309 0.6-0.828 0.191-0.935 0.196-0.931-0.449-0.409m287.66 0.299c0 0.441-0.1 0.802-0.223 0.802s-0.224 0.155-0.224 0.344c0 0.29 0.068 0.281 0.43-0.057 0.508-0.473 0.703-1.65 0.297-1.793-0.19-0.066-0.28 0.159-0.28 0.704m-289.26 2.596c0 0.378 0.099 0.428 0.615 0.306 0.731-0.172 1.096-0.463 0.868-0.692-0.091-0.091-0.259-0.017-0.373 0.164-0.141 0.223-0.21 0.239-0.212 0.05-2e-3 -0.154-0.205-0.28-0.451-0.28-0.3 0-0.447 0.149-0.447 0.452m289.65 0.388c-0.215 0.048-0.392 0.181-0.392 0.295 0 0.286 0.612 0.261 0.793-0.031 0.188-0.306 0.087-0.372-0.401-0.264m-0.015 4.674c-0.255 0.255-0.184 188.22 0.07 188.22 0.238 0 0.447-187.88 0.21-188.2-0.07-0.094-0.196-0.103-0.28-0.019m-77.781 0.875c-4.125 0.449-7.639 0.902-8.669 1.12-0.329 0.069-0.504 0.269-0.504 0.576 0 0.539 2.322 0.517 5.481-0.053 1.802-0.325 17.44-0.429 20.318-0.135l1.75 0.178-0.072-0.626c-0.066-0.577-0.167-0.638-1.302-0.787-1.359-0.177-15.756-0.409-17.002-0.273m32.214 3.769c0 0.213-0.163 0.276-0.503 0.194-0.451-0.107-0.469-0.084-0.168 0.229 0.461 0.478 1.566 0.255 1.566-0.316 0-0.273-0.158-0.422-0.447-0.422-0.246 0-0.448 0.142-0.448 0.315m2.629 0.082c-0.531 0.113-0.499 0.722 0.038 0.722 0.56 0 1.136-0.226 1.136-0.445 0-0.226-0.673-0.385-1.174-0.277m-67.058 7.21c0 0.246 0.079 0.447 0.176 0.447 0.096 0 0.175-0.201 0.175-0.447 0-0.247-0.079-0.448-0.175-0.448-0.097 0-0.176 0.201-0.176 0.448m-8.812 7.063c-0.094 0.245-0.023 0.33 0.237 0.279 0.205-0.039 0.414-0.198 0.465-0.351 0.137-0.412-0.544-0.342-0.702 0.072m72.965 3.947c-0.083 0.212-0.057 0.443 0.059 0.515 0.248 0.153 0.2 1.226-0.055 1.226-0.096 0-0.175 0.222-0.175 0.492 0 0.364 0.065 0.427 0.251 0.242 0.138-0.138 0.397-0.195 0.575-0.127 0.345 0.133 0.194-1.485-0.161-1.725-0.091-0.062-0.206-0.314-0.254-0.56-0.079-0.398-0.106-0.404-0.24-0.063m-77.8 0.828c0 0.452 0.288 0.913 0.57 0.913 0.455 0 0.614-0.417 0.278-0.729-0.378-0.351-0.848-0.453-0.848-0.184m77.957 3.262c-0.057 0.185-0.152 0.487-0.209 0.671-0.058 0.185-0.011 0.336 0.104 0.336 0.229 0 0.672-0.727 0.672-1.104 0-0.362-0.447-0.285-0.567 0.097m-80.641 0.994c0 0.417 0.498 0.506 0.852 0.151 0.334-0.333 0.314-0.362-0.245-0.362-0.334 0-0.607 0.095-0.607 0.211m-1.999 2.005c-0.569 0.8-0.569 0.82-9e-3 0.82 0.277 0 0.41-0.111 0.342-0.287-0.06-0.159-0.024-0.288 0.081-0.288 0.104 0 0.243-0.201 0.307-0.447 0.17-0.649-0.186-0.549-0.721 0.202m-0.238 2.258c-0.178 0.11-0.249 0.274-0.158 0.365s0.282 0.047 0.426-0.096c0.338-0.338 0.149-0.527-0.268-0.269m-4.032 5.649c-0.244 0.4-0.438 1.029-0.43 1.398 0.025 1.058-0.274 2.573-0.507 2.573-0.12 0-0.148-0.294-0.065-0.671 0.093-0.422 0.058-0.671-0.094-0.671-0.223 0-0.327 0.368-0.302 1.063 6e-3 0.153-0.068 0.279-0.164 0.279-0.368 0-0.894 1.858-0.894 3.155 0 1.471 0.359 1.725 0.739 0.522 0.114-0.361 0.64-1.764 1.169-3.118 1.298-3.32 1.665-6.354 0.548-4.53m67.075 3.462c-0.515 0.319-0.683 0.331-1.153 0.08-0.545-0.292-1.04-0.188-1.04 0.219 0 0.115 0.201 0.21 0.447 0.21 0.249 0 0.447 0.149 0.447 0.336 0 0.209 0.212 0.335 0.56 0.335 0.401 0 0.559-0.12 0.559-0.426 0-0.317 0.116-0.396 0.447-0.31 0.344 0.09 0.448 7e-3 0.448-0.356 0-0.562 0.041-0.557-0.715-0.088m3.362 6e-3c-0.127 0.285-1.529 0.943-1.529 0.716 0-0.117-0.159-0.213-0.354-0.213s-0.313 0.126-0.262 0.28c0.117 0.356 1.716 0.5 2.033 0.183 0.131-0.132 0.546-0.247 0.921-0.257 0.376-0.01 0.557-0.068 0.403-0.13s-0.28-0.256-0.28-0.43c0-0.324-0.797-0.452-0.932-0.149m-6.954 0.43c0.277 0.193 0.504 0.49 0.504 0.66 0 0.366 0.359 0.408 0.57 0.067 0.194-0.314-0.659-1.105-1.176-1.09-0.345 0.011-0.33 0.061 0.102 0.363m9.148-0.039c-0.079 0.205-1e-3 0.336 0.199 0.336 0.181 0 0.329-0.151 0.329-0.336 0-0.184-0.09-0.335-0.2-0.335s-0.257 0.151-0.328 0.335m2.15 0.046c-0.277 0.054-0.503 0.247-0.503 0.431 0 0.509 1.649 0.323 1.748-0.197 0.075-0.398-0.16-0.443-1.245-0.234m2.082 0.911c-0.281 0.281-0.092 0.497 0.435 0.497 0.307 0 0.559-0.088 0.559-0.197 0-0.234-0.814-0.48-0.994-0.3m-24.957 5.084c0 0.184-0.1 0.335-0.223 0.335-0.124 0-0.224 0.162-0.224 0.36 0 0.231-0.123 0.312-0.344 0.227-0.196-0.075-0.399 0.011-0.472 0.2-0.07 0.182-0.317 0.332-0.55 0.332-0.695 0-0.479 0.333 0.233 0.358 0.504 0.018 0.902-0.228 1.724-1.062 1.051-1.067 1.059-1.086 0.463-1.086-0.39 0-0.607 0.12-0.607 0.336m-3.132 2.908c0.304 0.366 0.895 0.456 0.895 0.136 0-0.206-0.529-0.472-0.94-0.472-0.141 0-0.123 0.133 0.045 0.336m-53.244 0.974c0 0.082 0.185 0.264 0.411 0.405 0.32 0.2 0.41 0.191 0.41-0.042 0-0.164-0.185-0.346-0.41-0.405-0.226-0.059-0.411-0.04-0.411 0.042m-0.503 0.162c-0.259 0.261-0.202 0.773 0.205 1.838 0.309 0.809 0.409 0.911 0.585 0.596 0.147-0.263 0.124-0.434-0.075-0.558-0.159-0.098-0.347-0.598-0.418-1.112-0.071-0.513-0.205-0.857-0.297-0.764m-0.632 2.611c-9e-3 0.154-0.059 0.506-0.11 0.783-0.052 0.277 6e-3 0.503 0.128 0.503 0.123 0 0.223-0.352 0.223-0.783 0-0.72-0.203-1.144-0.241-0.503m51.711 0.932c-0.354 0.426-0.248 0.636 0.185 0.368 0.165-0.102 0.26-0.309 0.209-0.46-0.065-0.195-0.179-0.168-0.394 0.092m-1.03 1.048c-0.082 0.259-0.039 0.581 0.097 0.716 0.135 0.135 0.256 0.553 0.268 0.928 0.02 0.62 0.036 0.634 0.171 0.152 0.346-1.234-0.168-2.956-0.536-1.796m-0.843 1.923c-0.654 1.079-1.182 6.332-0.636 6.332 0.258 0 1.395-4.278 1.446-5.438 0.038-0.874-0.478-1.444-0.81-0.894m-52.282 24.973c0 0.163-0.252 0.533-0.559 0.822-0.461 0.433-0.56 0.735-0.56 1.717v1.191h1.231 1.23v-2.013-2.014h-0.671c-0.408 0-0.671 0.117-0.671 0.297m81.208 3.345c0 0.471-0.156 0.847-0.435 1.048-0.528 0.38-0.405 0.682 0.212 0.521 0.246-0.065 0.459-0.03 0.474 0.077 0.665 4.706 0.346 31.369-0.372 31.094-0.153-0.059-0.51 0.139-0.793 0.44-1.085 1.155-1.749 1.21-14.675 1.21-11.779 0-11.928 5e-3 -11.928 0.447 0 0.443 0.149 0.448 13.278 0.448 7.303 0 13.897 0.064 14.654 0.143l1.375 0.144v-18.153-18.152h-0.895c-0.862 0-0.895 0.027-0.895 0.733m-100.67 34.701v0.584h4.586c4.437 0 4.586-0.015 4.586-0.448 0-0.431-0.149-0.447-4.232-0.447-2.328 0-4.392-0.061-4.586-0.136-0.267-0.102-0.354 8e-3 -0.354 0.447m18.344 0.697c0 0.759 0.162 1.232 0.65 1.906 0.683 0.942 1.159 2.552 1.091 3.685-0.239 3.972 0.092 28.524 0.385 28.524 0.295 0 0.335-2.101 0.335-17.562v-17.561h-1.23-1.231v1.008m1.79 47.873c0 3.928 0.048 4.586 0.336 4.586 0.287 0 0.335-0.658 0.335-4.586 0-3.927-0.048-4.586-0.335-4.586-0.288 0-0.336 0.659-0.336 4.586m0 27.405c0 11.981 0.041 13.647 0.336 13.647 0.294 0 0.335-1.666 0.335-13.647s-0.041-13.646-0.335-13.646c-0.295 0-0.336 1.665-0.336 13.646m139.76-6.801c-0.202 0.201 0.076 0.777 0.306 0.635 0.11-0.069 0.201-0.269 0.201-0.447 0-0.329-0.267-0.428-0.507-0.188m-0.015 2.252c-0.228 0.228-0.178 1.193 0.061 1.193 0.116 0 0.273-0.1 0.349-0.223s0.031-0.224-0.099-0.224-0.237-0.151-0.237-0.336c0-0.548 0.317-0.382 0.633 0.331 0.163 0.367 0.227 0.883 0.143 1.147-0.103 0.324-0.072 0.43 0.095 0.327 0.312-0.193 0.322-1.36 0.016-1.931-0.231-0.433-0.68-0.565-0.961-0.284m-289.56 1.138c0.36 2.903 0.424 3.149 0.847 3.259 0.498 0.131 0.57 0.823 0.085 0.823-0.367 0-0.405 0.315-0.121 1.007 0.169 0.411 0.204 0.394 0.446-0.219 0.144-0.367 0.38-0.74 0.525-0.829 0.198-0.123 0.188-0.342-0.042-0.899-0.252-0.613-0.64-2.835-0.685-3.925-6e-3 -0.154-0.276-0.28-0.599-0.28-0.571 0-0.584 0.031-0.456 1.063m289.34 4.679c-0.243 0.242-0.17 1.601 0.094 1.764 0.436 0.27 0.713-0.284 0.558-1.114-0.145-0.771-0.338-0.964-0.652-0.65m-287.29 0.711c0.095 0.621 0.036 0.769-0.35 0.87-0.344 0.09-0.431 0.243-0.337 0.594 0.07 0.259 0.128 0.56 0.13 0.667 2e-3 0.108 0.147 0.076 0.324-0.071 0.255-0.211 0.416-0.17 0.788 0.202l0.468 0.469-0.129-0.51c-0.31-1.222-1.006-2.95-0.894-2.221m3.849 12.427c-0.083 0.215-4e-3 0.66 0.175 0.99l0.326 0.6-7e-3 -0.56c-0.011-0.907-0.306-1.522-0.494-1.03m280.33 0.377c-0.216 0.126-0.392 0.367-0.392 0.538 0 0.17-0.194 0.371-0.432 0.446-0.558 0.177-0.804 1.277-0.422 1.888 0.387 0.62 0.76 0.464 0.67-0.281-0.048-0.402 0.033-0.595 0.249-0.595 0.177 0 0.486-0.432 0.688-0.959 0.522-1.367 0.468-1.52-0.361-1.037m-279.36 0.262c0.01 0.371 0.626 1.175 0.782 1.019 0.164-0.163-0.362-1.299-0.601-1.299-0.103 0-0.185 0.126-0.181 0.28m1.559 2.938c0 0.17 0.2 0.362 0.444 0.425 0.377 0.099 0.409 0.053 0.215-0.309-0.265-0.495-0.659-0.565-0.659-0.116m275.3 1.298c-0.838 1.791-1.09 3.538-0.51 3.538 0.363 0 2.223-3.854 1.943-4.027-0.111-0.068-0.298-0.373-0.415-0.677-0.2-0.516-0.269-0.437-1.018 1.166m-273.74 1.636c0 0.185 0.101 0.336 0.224 0.336s0.224-0.151 0.224-0.336c0-0.184-0.101-0.335-0.224-0.335s-0.224 0.151-0.224 0.335m0.597 0.709c-0.082 0.082-0.149 0.35-0.149 0.596 0 0.561 0.295 0.298 0.34-0.302 0.036-0.491 0.024-0.509-0.191-0.294m139.22 5.779c0 3.927 0.048 4.586 0.336 4.586 0.287 0 0.335-0.659 0.335-4.586s-0.048-4.586-0.335-4.586c-0.288 0-0.336 0.659-0.336 4.586m130.42-1.23c-0.203 0.379-0.17 0.447 0.216 0.447 0.306 0 0.455-0.146 0.455-0.447 0-0.246-0.097-0.448-0.216-0.448-0.118 0-0.323 0.202-0.455 0.448m-264.95 0.82c-0.319 0.319-0.156 1.02 0.204 0.881 0.195-0.074 0.396-0.135 0.448-0.135 0.051 0 0.093-0.113 0.093-0.251 0-0.164-0.13-0.144-0.374 0.055-0.333 0.274-0.36 0.253-0.245-0.196 0.138-0.532 0.115-0.595-0.126-0.354m256.1 11.499c-0.081 0.131-0.073 0.307 0.018 0.391 0.09 0.084 0.21 0.027 0.265-0.128 0.055-0.154 0.192-0.224 0.305-0.154 0.112 0.069 0.204 0.019 0.204-0.111 0-0.308-0.601-0.307-0.792 2e-3m-121.66 3.285c-0.062 0.338-0.11 1.236-0.106 1.996 0.015 2.751-1.151 4.674-3.161 5.216-0.624 0.168-14.642 0.218-46.815 0.169l-45.925-0.071-2.203-0.495c-3.072-0.691-4.173-0.674-4.173 0.064 0 0.307 0.043 0.559 0.095 0.559s1.331 0.208 2.843 0.461c1.511 0.254 4.011 0.512 5.554 0.574 4.183 0.167 89.202 0.326 92.123 0.172l2.517-0.132v-4.564c0-3.795-0.053-4.565-0.318-4.565-0.174 0-0.368 0.277-0.431 0.616m-117.52 0.177c-0.073 0.19-0.07 0.408 7e-3 0.485s0.139-0.039 0.139-0.257c0-0.267 0.114-0.354 0.348-0.264 0.199 0.076 0.289 0.039 0.21-0.088-0.203-0.329-0.554-0.268-0.704 0.124m234.52 0.251c-0.292 0.292-0.143 0.746 0.242 0.743 0.31-3e-3 0.327-0.045 0.083-0.199-0.169-0.107-0.239-0.307-0.154-0.444 0.169-0.274 0.064-0.335-0.171-0.1m-233.18 0.779c0.338 0.196 0.359 0.281 0.112 0.437-0.241 0.153-0.223 0.195 0.085 0.198 0.243 2e-3 0.391-0.166 0.391-0.444 0-0.317-0.147-0.446-0.503-0.441-0.471 7e-3 -0.476 0.023-0.085 0.25m227.36 2.677c-0.14 0.536 0.217 0.766 0.641 0.414 0.441-0.366 0.409-0.589-0.102-0.723-0.29-0.076-0.464 0.024-0.539 0.309m-1.942 0.534c0.227 0.274 0.215 0.336-0.065 0.336-0.19 0-0.396-0.126-0.458-0.28-0.079-0.196-0.118-0.201-0.13-0.016-0.021 0.307 1.116 0.924 1.48 0.803 0.147-0.049 0.041-0.308-0.258-0.631-0.546-0.588-1.031-0.77-0.569-0.212m-216.11 0.447c0 0.185-0.117 0.336-0.261 0.336s-0.208 0.053-0.144 0.117c0.065 0.065 0.283 0.054 0.485-0.024 0.396-0.152 0.512-0.764 0.144-0.764-0.123 0-0.224 0.151-0.224 0.335m159.96 3.039v0.876h20.582c14.017 0 20.582-0.073 20.582-0.231 0-0.15 0.71-0.193 2.024-0.123 2.324 0.124 2.674 0.043 2.674-0.62v-0.48l-22.133 0.071c-14.062 0.045-22.424-0.01-22.931-0.15l-0.798-0.22v0.877" fill="#fcf4f4"/>
<path d="m298.66 56.376c-0.261 0.168-0.195 0.217 0.293 0.22 0.362 2e-3 0.57-0.091 0.49-0.22-0.172-0.278-0.353-0.278-0.783 0m17.673 3.251c0 0.362 0.35 0.444 0.545 0.128 0.068-0.11-0.027-0.258-0.211-0.329-0.203-0.077-0.334 1e-3 -0.334 0.201m1.597 0.528c-0.258 0.163-0.258 0.209 0 0.296 0.434 0.146 1.106-0.062 0.96-0.297-0.154-0.25-0.565-0.249-0.96 1e-3m11.985 7.854c-0.076 0.291-7e-3 0.447 0.197 0.447 0.173 0 0.315-0.201 0.315-0.447s-0.089-0.447-0.198-0.447c-0.108 0-0.25 0.201-0.314 0.447m-256.29-0.021c-0.249 0.158-0.22 0.244 0.146 0.44 0.397 0.213 0.441 0.187 0.34-0.199-0.064-0.244-0.129-0.442-0.146-0.44-0.016 2e-3 -0.169 0.091-0.34 0.199m-1.144 1.258c0 0.362 0.35 0.445 0.545 0.129 0.068-0.11-0.027-0.258-0.21-0.329-0.204-0.078-0.335 1e-3 -0.335 0.2m258.39 0.217c0 0.185 0.089 0.336 0.197 0.336s0.321-0.151 0.475-0.336c0.232-0.28 0.2-0.335-0.197-0.335-0.273 0-0.475 0.142-0.475 0.335m-259.93 0.644c-0.163 0.196-0.184 0.375-0.054 0.455 0.306 0.19 0.96-0.102 0.866-0.385-0.128-0.385-0.523-0.419-0.812-0.07m261.2 0.065c-0.257 0.257-0.163 0.522 0.187 0.522 0.184 0 0.335-0.151 0.335-0.336 0-0.349-0.264-0.444-0.522-0.186m1.291 0.816c-0.188 0.487 0.13 0.875 0.519 0.634 0.218-0.135 0.209-0.266-0.041-0.606-0.305-0.414-0.327-0.416-0.478-0.028m-263.98 0.168c-0.081 0.131-0.094 0.292-0.028 0.358 0.16 0.16 0.596-0.122 0.596-0.386 0-0.286-0.386-0.267-0.568 0.028m265 1.104c0 0.417 0.06 0.477 0.268 0.268 0.209-0.209 0.209-0.328 0-0.537-0.208-0.209-0.268-0.149-0.268 0.269m-268.87 2.75c-0.365 0.44 0.506 1.269 0.909 0.866 0.206-0.205 0.162-0.37-0.191-0.723-0.386-0.386-0.498-0.408-0.718-0.143m-1.049 1.282c-0.314 0.347-0.349 0.514-0.147 0.716 0.202 0.201 0.263 0.168 0.263-0.142 0-0.323 0.124-0.379 0.615-0.277 0.339 0.07 0.49 0.072 0.336 5e-3 -0.154-0.066-0.28-0.264-0.28-0.438 0-0.447-0.308-0.394-0.787 0.136m-2.923 4.338c-0.688 0.6-0.818 0.823-0.606 1.041 0.264 0.272 0.695-0.067 1.827-1.434 0.581-0.702-0.285-0.423-1.221 0.393m-2.167 2.055c-0.089 0.09-0.163 0.318-0.163 0.507 0 0.251 0.066 0.276 0.249 0.094 0.137-0.137 0.21-0.365 0.163-0.506-0.047-0.142-0.159-0.184-0.249-0.095m-4.018 9.134c-0.06 0.316-0.02 0.575 0.09 0.575 0.314 0 0.493-0.677 0.244-0.926-0.15-0.15-0.26-0.034-0.334 0.351m182.21 18.479c-0.594 0.238-0.677 0.891-0.112 0.881 0.483-9e-3 1.174-0.513 1.174-0.857 0-0.299-0.359-0.307-1.062-0.024m-3.092 1.808c-0.178 0.288 0.287 0.637 0.855 0.642 0.488 5e-3 0.516-0.572 0.037-0.755-0.509-0.196-0.717-0.169-0.892 0.113m-0.439 1.328c-0.212 0.344 0.079 0.566 0.366 0.279 0.161-0.161 0.165-0.286 0.012-0.38-0.125-0.078-0.295-0.032-0.378 0.101m-17.862 17.091c-0.356 0.544-0.353 0.571 0.055 0.571 0.477 0 0.825-0.636 0.517-0.944-0.114-0.114-0.355 0.043-0.572 0.373m-0.451 1.783c0.074 0.195 0.234 0.354 0.354 0.354 0.294 0 0.11-0.508-0.225-0.62-0.163-0.054-0.213 0.048-0.129 0.266m49.76 14.551c-0.158 0.189-0.425 0.345-0.595 0.345-0.359 0-0.386 0.202-0.088 0.671 0.181 0.283 0.309 0.24 0.828-0.277 0.431-0.43 0.543-0.682 0.378-0.848-0.166-0.166-0.322-0.134-0.523 0.109m-4.606 4.615c-0.195 0.316 0.236 0.747 0.552 0.551 0.134-0.082 0.243-0.295 0.243-0.472 0-0.377-0.576-0.434-0.795-0.079m-3.591 6.374c0.074 0.195 0.137 0.421 0.139 0.504 4e-3 0.2 0.436-0.476 0.44-0.69 2e-3 -0.092-0.158-0.168-0.356-0.168-0.236 0-0.312 0.122-0.223 0.354m86.265 137.12c0 0.185 0.101 0.336 0.224 0.336s0.224-0.151 0.224-0.336c0-0.184-0.101-0.335-0.224-0.335s-0.224 0.151-0.224 0.335m-278.86 25.839c-0.163 0.264 0.049 0.672 0.349 0.672 0.116 0 0.21-0.202 0.21-0.448 0-0.472-0.325-0.602-0.559-0.224m268.93 5.278c-0.186 0.485 0.089 0.899 0.337 0.507 0.252-0.398 0.252-0.863-1e-3 -0.863-0.109 0-0.261 0.16-0.336 0.356m-260 4.963c-0.302 0.204-0.552 0.861-0.389 1.024 0.068 0.068 0.27-0.023 0.449-0.202 0.365-0.365 0.314-1.074-0.06-0.822m256.77 1.322c-0.283 0.319-0.483 0.741-0.445 0.938 0.05 0.261 0.209 0.16 0.587-0.37 0.653-0.916 0.545-1.343-0.142-0.568m-3.057 3.411c-0.152 0.247 0.201 0.514 0.407 0.307 0.213-0.212 0.173-0.516-0.067-0.516-0.116 0-0.269 0.094-0.34 0.209m-0.792 1.049c0 0.298 0.061 0.313 0.335 0.085 0.185-0.153 0.336-0.317 0.336-0.363 0-0.047-0.151-0.085-0.336-0.085-0.184 0-0.335 0.164-0.335 0.363m-5.33 4.182c-0.552 0.587-0.613 0.828-0.207 0.817 0.441-0.012 1.336-0.85 1.178-1.105-0.214-0.347-0.436-0.281-0.971 0.288m-234.94 0.265c0 0.205 0.109 0.337 0.241 0.293s0.24-0.176 0.24-0.293-0.108-0.248-0.24-0.293c-0.132-0.044-0.241 0.088-0.241 0.293m0.672 1.007c0 0.123 0.207 0.224 0.46 0.224 0.254 0 0.399-0.101 0.323-0.224s-0.284-0.224-0.461-0.224-0.322 0.101-0.322 0.224m227.85 1.79c-0.076 0.123-0.09 0.223-0.032 0.223 0.059 0 0.266 0.061 0.461 0.136 0.232 0.089 0.354 0.012 0.354-0.224 0-0.394-0.563-0.492-0.783-0.135m-222.36 0.655c-0.071 0.115-0.021 0.275 0.112 0.357 0.318 0.197 1.333-0.066 1.333-0.346 0-0.279-1.273-0.289-1.445-0.011m3.514 0.967c0.141 0.423 0.839 0.483 0.839 0.072 0-0.208-0.191-0.352-0.466-0.352-0.273 0-0.428 0.115-0.373 0.28" fill="#f4f4f4"/>
</g>
</svg>
